<svg width="25" height="24" viewBox="0 0 25 24" fill="none" xmlns="http://www.w3.org/2000/svg">
<path d="M9.50002 17.75C9.09002 17.75 8.75002 17.41 8.75002 17V12.81L8.03002 13.53C7.74002 13.82 7.26002 13.82 6.97002 13.53C6.83054 13.3889 6.75232 13.1984 6.75232 13C6.75232 12.8016 6.83054 12.6111 6.97002 12.47L8.97002 10.47C9.18002 10.26 9.51002 10.19 9.79002 10.31C10.07 10.42 10.25 10.7 10.25 11V17C10.25 17.41 9.91002 17.75 9.50002 17.75Z" fill="white"/>
<path d="M11.5 13.75C11.31 13.75 11.12 13.68 10.97 13.53L8.97002 11.53C8.83054 11.3889 8.75232 11.1984 8.75232 11C8.75232 10.8016 8.83054 10.6111 8.97002 10.47C9.26002 10.18 9.74002 10.18 10.03 10.47L12.03 12.47C12.32 12.76 12.32 13.24 12.03 13.53C11.88 13.68 11.69 13.75 11.5 13.75Z" fill="white"/>
<path d="M15.5 22.75H9.5C4.07 22.75 1.75 20.43 1.75 15V9C1.75 3.57 4.07 1.25 9.5 1.25H14.5C14.91 1.25 15.25 1.59 15.25 2C15.25 2.41 14.91 2.75 14.5 2.75H9.5C4.89 2.75 3.25 4.39 3.25 9V15C3.25 19.61 4.89 21.25 9.5 21.25H15.5C20.11 21.25 21.75 19.61 21.75 15V10C21.75 9.59 22.09 9.25 22.5 9.25C22.91 9.25 23.25 9.59 23.25 10V15C23.25 20.43 20.93 22.75 15.5 22.75Z" fill="white"/>
<path d="M22.5 10.75H18.5C15.08 10.75 13.75 9.41999 13.75 5.99999V1.99999C13.75 1.69999 13.93 1.41999 14.21 1.30999C14.49 1.18999 14.81 1.25999 15.03 1.46999L23.03 9.46999C23.1538 9.46948 23.2757 9.49957 23.385 9.55757C23.4944 9.61557 23.5876 9.69969 23.6566 9.80244C23.7256 9.90519 23.7681 10.0234 23.7804 10.1465C23.7926 10.2697 23.7743 10.3939 23.7269 10.5083C23.6796 10.6226 23.6047 10.7235 23.509 10.8019C23.4133 10.8803 23.2996 10.9339 23.1782 10.9578C23.0568 10.9817 22.9313 10.9753 22.813 10.939C22.6947 10.9028 22.5872 10.8378 22.5 10.75ZM15.25 3.80999V5.99999C15.25 8.57999 15.92 9.24999 18.5 9.24999H20.69L15.25 3.80999Z" fill="white"/>
</svg>
