<svg width="23" height="22" viewBox="0 0 23 22" fill="none" xmlns="http://www.w3.org/2000/svg">
<path d="M8.50002 16.75C8.09002 16.75 7.75002 16.41 7.75002 16V11.81L7.03002 12.53C6.74002 12.82 6.26002 12.82 5.97002 12.53C5.83054 12.3889 5.75232 12.1984 5.75232 12C5.75232 11.8016 5.83054 11.6111 5.97002 11.47L7.97002 9.46999C8.18002 9.25999 8.51002 9.18999 8.79002 9.30999C9.07002 9.41999 9.25002 9.69999 9.25002 9.99999V16C9.25002 16.41 8.91002 16.75 8.50002 16.75Z" fill="#292D32"/>
<path d="M10.5 12.7499C10.31 12.7499 10.12 12.6799 9.97002 12.5299L7.97002 10.5299C7.83054 10.3888 7.75232 10.1984 7.75232 9.99994C7.75232 9.80151 7.83054 9.61108 7.97002 9.46994C8.26002 9.17994 8.74002 9.17994 9.03002 9.46994L11.03 11.4699C11.32 11.7599 11.32 12.2399 11.03 12.5299C10.88 12.6799 10.69 12.7499 10.5 12.7499Z" fill="#292D32"/>
<path d="M14.5 21.75H8.5C3.07 21.75 0.75 19.43 0.75 14V8C0.75 2.57 3.07 0.25 8.5 0.25H13.5C13.91 0.25 14.25 0.59 14.25 1C14.25 1.41 13.91 1.75 13.5 1.75H8.5C3.89 1.75 2.25 3.39 2.25 8V14C2.25 18.61 3.89 20.25 8.5 20.25H14.5C19.11 20.25 20.75 18.61 20.75 14V9C20.75 8.59 21.09 8.25 21.5 8.25C21.91 8.25 22.25 8.59 22.25 9V14C22.25 19.43 19.93 21.75 14.5 21.75Z" fill="#292D32"/>
<path d="M21.5 9.74999H17.5C14.08 9.74999 12.75 8.41999 12.75 4.99999V0.999989C12.75 0.699989 12.93 0.419989 13.21 0.309989C13.49 0.189989 13.81 0.259989 14.03 0.469989L22.03 8.46999C22.1538 8.46948 22.2757 8.49957 22.385 8.55757C22.4944 8.61557 22.5876 8.69969 22.6566 8.80244C22.7256 8.90519 22.7681 9.02339 22.7804 9.14654C22.7926 9.26968 22.7743 9.39395 22.7269 9.50829C22.6796 9.62263 22.6047 9.7235 22.509 9.80192C22.4133 9.88035 22.2996 9.9339 22.1782 9.95782C22.0568 9.98174 21.9313 9.97528 21.813 9.93902C21.6947 9.90277 21.5872 9.83783 21.5 9.74999ZM14.25 2.80999V4.99999C14.25 7.57999 14.92 8.24999 17.5 8.24999H19.69L14.25 2.80999Z" fill="#292D32"/>
</svg>
