<svg width="34" height="34" viewBox="0 0 34 34" fill="none" xmlns="http://www.w3.org/2000/svg">
<path opacity="0.4" d="M17 31.1667C24.8242 31.1667 31.1666 24.8243 31.1666 17C31.1666 9.17579 24.8242 2.83337 17 2.83337C9.17573 2.83337 2.83331 9.17579 2.83331 17C2.83331 24.8243 9.17573 31.1667 17 31.1667Z" fill="#387DE5"/>
<path d="M17.2861 24.6245C16.2554 24.6245 15.2666 24.216 14.5364 23.4884C13.8062 22.7609 13.3941 21.7736 13.3903 20.7428C13.3903 19.7087 13.8011 18.717 14.5378 17.9945L16.5353 15.997C16.9461 15.5862 17.6261 15.5862 18.037 15.997C18.4478 16.4078 18.4478 17.0878 18.037 17.4987L16.0395 19.4962C15.874 19.6589 15.7425 19.8529 15.6528 20.0669C15.563 20.281 15.5168 20.5107 15.5168 20.7428C15.5168 20.9749 15.563 21.2047 15.6528 21.4187C15.7425 21.6328 15.874 21.8268 16.0395 21.9895C16.7336 22.6837 17.8528 22.6837 18.547 21.9895L21.692 18.8445C22.5366 17.9763 23.0054 16.8105 22.9971 15.5993C22.9887 14.3881 22.5039 13.2289 21.6474 12.3724C20.7909 11.5159 19.6317 11.0311 18.4205 11.0227C17.2093 11.0144 16.0435 11.4832 15.1753 12.3278L11.747 15.7562C11.3927 16.1062 11.1114 16.5232 10.9194 16.9828C10.7274 17.4424 10.6285 17.9356 10.6285 18.4337C10.6285 18.9318 10.7274 19.4249 10.9194 19.8845C11.1114 20.3441 11.3927 20.7611 11.747 21.1112C12.1578 21.522 12.1578 22.202 11.747 22.6128C11.3361 23.0237 10.6561 23.0237 10.2453 22.6128C9.69397 22.0631 9.25729 21.4093 8.9606 20.6895C8.66391 19.9696 8.51312 19.1981 8.51698 18.4195C8.51698 16.8328 9.12615 15.3453 10.2453 14.2262L13.6736 10.7978C14.938 9.53893 16.6495 8.83215 18.4336 8.83215C20.2178 8.83215 21.9293 9.53893 23.1936 10.7978C24.4525 12.0621 25.1593 13.7736 25.1593 15.5578C25.1593 17.342 24.4525 19.0535 23.1936 20.3178L20.0486 23.4628C19.2836 24.242 18.292 24.6245 17.2861 24.6245Z" fill="#387DE5"/>
</svg>
