<svg width="30" height="31" viewBox="0 0 30 31" fill="none" xmlns="http://www.w3.org/2000/svg">
<g filter="url(#filter0_d_70_2912)">
<path d="M15 22.08C14.7 22.08 14.4 22.01 14.15 21.87C12.28 20.85 8.99 19.77 6.93 19.5L6.64 19.46C5.33 19.3 4.25 18.07 4.25 16.74V4.66001C4.25 3.87001 4.56 3.15001 5.13 2.63001C5.7 2.11001 6.44 1.86001 7.22 1.93001C9.42 2.10001 12.74 3.20001 14.62 4.38001L14.86 4.52001C14.93 4.56001 15.08 4.56001 15.14 4.53001L15.3 4.43001C17.18 3.25001 20.5 2.13001 22.71 1.94001H22.83C23.56 1.87001 24.31 2.13001 24.87 2.65001C25.44 3.17001 25.75 3.89001 25.75 4.68001V16.75C25.75 18.09 24.67 19.31 23.35 19.47L23.02 19.51C20.96 19.78 17.66 20.87 15.83 21.88C15.59 22.02 15.3 22.08 15 22.08ZM6.98 3.42001C6.66 3.42001 6.37 3.53001 6.14 3.74001C5.89 3.97001 5.75 4.30001 5.75 4.66001V16.74C5.75 17.33 6.26 17.9 6.83 17.98L7.13 18.02C9.38 18.32 12.83 19.45 14.83 20.54C14.92 20.58 15.05 20.59 15.1 20.57C17.1 19.46 20.57 18.32 22.83 18.02L23.17 17.98C23.74 17.91 24.25 17.33 24.25 16.74V4.67001C24.25 4.30001 24.11 3.98001 23.86 3.74001C23.6 3.51001 23.27 3.40001 22.9 3.42001H22.78C20.87 3.59001 17.79 4.62001 16.11 5.67001L15.95 5.78001C15.4 6.12001 14.62 6.12001 14.09 5.79001L13.85 5.65001C12.14 4.60001 9.06 3.58001 7.1 3.42001H6.98Z" fill="#071A36"/>
<path d="M15 21.238C14.59 21.238 14.25 20.898 14.25 20.488V5.48804C14.25 5.07804 14.59 4.73804 15 4.73804C15.41 4.73804 15.75 5.07804 15.75 5.48804V20.488C15.75 20.908 15.41 21.238 15 21.238Z" fill="#071A36"/>
<path d="M10.75 9.23804H8.5C8.09 9.23804 7.75 8.89804 7.75 8.48804C7.75 8.07804 8.09 7.73804 8.5 7.73804H10.75C11.16 7.73804 11.5 8.07804 11.5 8.48804C11.5 8.89804 11.16 9.23804 10.75 9.23804Z" fill="#071A36"/>
<path d="M11.5 12.238H8.5C8.09 12.238 7.75 11.898 7.75 11.488C7.75 11.078 8.09 10.738 8.5 10.738H11.5C11.91 10.738 12.25 11.078 12.25 11.488C12.25 11.898 11.91 12.238 11.5 12.238Z" fill="#071A36"/>
</g>
<defs>
<filter id="filter0_d_70_2912" x="-1" y="0" width="32" height="32" filterUnits="userSpaceOnUse" color-interpolation-filters="sRGB">
<feFlood flood-opacity="0" result="BackgroundImageFix"/>
<feColorMatrix in="SourceAlpha" type="matrix" values="0 0 0 0 0 0 0 0 0 0 0 0 0 0 0 0 0 0 127 0" result="hardAlpha"/>
<feOffset dy="4"/>
<feGaussianBlur stdDeviation="2"/>
<feComposite in2="hardAlpha" operator="out"/>
<feColorMatrix type="matrix" values="0 0 0 0 0 0 0 0 0 0 0 0 0 0 0 0 0 0 0.25 0"/>
<feBlend mode="normal" in2="BackgroundImageFix" result="effect1_dropShadow_70_2912"/>
<feBlend mode="normal" in="SourceGraphic" in2="effect1_dropShadow_70_2912" result="shape"/>
</filter>
</defs>
</svg>
