<svg width="24" height="24" viewBox="0 0 24 24" fill="none" xmlns="http://www.w3.org/2000/svg">
<path d="M12 22.08C11.7 22.08 11.4 22.01 11.15 21.87C9.28 20.85 5.99 19.77 3.93 19.5L3.64 19.46C2.33 19.3 1.25 18.07 1.25 16.74V4.66001C1.25 3.87001 1.56 3.15001 2.13 2.63001C2.7 2.11001 3.44 1.86001 4.22 1.93001C6.42 2.10001 9.74 3.20001 11.62 4.38001L11.86 4.52001C11.93 4.56001 12.08 4.56001 12.14 4.53001L12.3 4.43001C14.18 3.25001 17.5 2.13001 19.71 1.94001H19.83C20.56 1.87001 21.31 2.13001 21.87 2.65001C22.44 3.17001 22.75 3.89001 22.75 4.68001V16.75C22.75 18.09 21.67 19.31 20.35 19.47L20.02 19.51C17.96 19.78 14.66 20.87 12.83 21.88C12.59 22.02 12.3 22.08 12 22.08ZM3.98 3.42001C3.66 3.42001 3.37 3.53001 3.14 3.74001C2.89 3.97001 2.75 4.30001 2.75 4.66001V16.74C2.75 17.33 3.26 17.9 3.83 17.98L4.13 18.02C6.38 18.32 9.83 19.45 11.83 20.54C11.92 20.58 12.05 20.59 12.1 20.57C14.1 19.46 17.57 18.32 19.83 18.02L20.17 17.98C20.74 17.91 21.25 17.33 21.25 16.74V4.67001C21.25 4.30001 21.11 3.98001 20.86 3.74001C20.6 3.51001 20.27 3.40001 19.9 3.42001H19.78C17.87 3.59001 14.79 4.62001 13.11 5.67001L12.95 5.78001C12.4 6.12001 11.62 6.12001 11.09 5.79001L10.85 5.65001C9.14 4.60001 6.06 3.58001 4.1 3.42001H3.98Z" fill="white"/>
<path d="M12 21.238C11.59 21.238 11.25 20.898 11.25 20.488V5.48804C11.25 5.07804 11.59 4.73804 12 4.73804C12.41 4.73804 12.75 5.07804 12.75 5.48804V20.488C12.75 20.908 12.41 21.238 12 21.238Z" fill="white"/>
<path d="M7.75 9.23804H5.5C5.09 9.23804 4.75 8.89804 4.75 8.48804C4.75 8.07804 5.09 7.73804 5.5 7.73804H7.75C8.16 7.73804 8.5 8.07804 8.5 8.48804C8.5 8.89804 8.16 9.23804 7.75 9.23804Z" fill="white"/>
<path d="M8.5 12.238H5.5C5.09 12.238 4.75 11.898 4.75 11.488C4.75 11.078 5.09 10.738 5.5 10.738H8.5C8.91 10.738 9.25 11.078 9.25 11.488C9.25 11.898 8.91 12.238 8.5 12.238Z" fill="white"/>
</svg>
