<svg width="24" height="24" viewBox="0 0 24 24" fill="none" xmlns="http://www.w3.org/2000/svg">
<path d="M21 4.125H3C2.40345 4.1256 1.8315 4.36284 1.40967 4.78467C0.98784 5.2065 0.750596 5.77845 0.75 6.375V20.25C0.750596 20.8466 0.98784 21.4185 1.40967 21.8403C1.8315 22.2622 2.40345 22.4994 3 22.5H21C21.5966 22.4994 22.1685 22.2622 22.5903 21.8403C23.0122 21.4185 23.2494 20.8466 23.25 20.25V6.375C23.2494 5.77845 23.0122 5.2065 22.5903 4.78467C22.1685 4.36284 21.5966 4.1256 21 4.125ZM22.5 20.25C22.5 20.6478 22.342 21.0294 22.0607 21.3107C21.7794 21.592 21.3978 21.75 21 21.75H3C2.60218 21.75 2.22064 21.592 1.93934 21.3107C1.65804 21.0294 1.5 20.6478 1.5 20.25V9H22.5V20.25Z" fill="#212121"/>
<path d="M18.375 1.5C18.375 1.30109 18.296 1.11032 18.1553 0.96967C18.0147 0.829018 17.8239 0.75 17.625 0.75C17.4261 0.75 17.2353 0.829018 17.0947 0.96967C16.954 1.11032 16.875 1.30109 16.875 1.5V3.375H18.375V1.5Z" fill="#212121"/>
<path d="M7.125 1.5C7.125 1.30109 7.04598 1.11032 6.90533 0.96967C6.76468 0.829018 6.57391 0.75 6.375 0.75C6.17609 0.75 5.98532 0.829018 5.84467 0.96967C5.70402 1.11032 5.625 1.30109 5.625 1.5V3.375H7.125V1.5Z" fill="#212121"/>
</svg>
