<svg width="21" height="21" viewBox="0 0 21 21" fill="none" xmlns="http://www.w3.org/2000/svg">
<path d="M12.5461 13.8189L11.1562 15.558C9.00271 14.2917 7.20792 12.4969 5.94165 10.3434L7.68071 8.95345C7.88446 8.79033 8.02845 8.56432 8.09019 8.31072C8.15192 8.05713 8.12793 7.79022 8.02196 7.5517L6.43777 3.98433C6.32421 3.72842 6.12344 3.52117 5.87127 3.39954C5.6191 3.2779 5.33193 3.24978 5.06096 3.3202L2.04221 4.1077C1.75993 4.17984 1.51428 4.35376 1.35244 4.59602C1.19061 4.83829 1.12401 5.13182 1.16546 5.4202C1.69562 9.18867 3.43825 12.6821 6.12991 15.3723C8.82156 18.0626 12.3159 19.8033 16.0846 20.3315C16.373 20.373 16.6666 20.3064 16.9088 20.1445C17.1511 19.9827 17.325 19.737 17.3971 19.4548L18.1846 16.436C18.2547 16.1652 18.2264 15.8784 18.1048 15.6265C17.9832 15.3746 17.7762 15.174 17.5205 15.0605L13.9479 13.479C13.7095 13.3728 13.4427 13.3486 13.1891 13.4101C12.9355 13.4716 12.7094 13.6154 12.5461 13.8189Z" stroke="#212121" stroke-width="1.5" stroke-linecap="round" stroke-linejoin="round"/>
<path d="M11.6562 5.25C12.8746 5.25 14.043 5.73398 14.9045 6.59548C15.766 7.45697 16.25 8.62541 16.25 9.84375" stroke="#212121" stroke-width="1.5" stroke-linecap="round" stroke-linejoin="round"/>
<path d="M11.6562 1.3125C12.7766 1.3125 13.886 1.53317 14.921 1.9619C15.9561 2.39064 16.8966 3.01905 17.6888 3.81125C18.481 4.60345 19.1094 5.54392 19.5381 6.57898C19.9668 7.61404 20.1875 8.72341 20.1875 9.84375" stroke="#212121" stroke-width="1.5" stroke-linecap="round" stroke-linejoin="round"/>
</svg>
