<svg width="30" height="30" viewBox="0 0 30 30" fill="none" xmlns="http://www.w3.org/2000/svg">
<path d="M20.333 29.333H2.99999C2.38221 29.3298 1.79064 29.083 1.3538 28.6462C0.916956 28.2093 0.670146 27.6178 0.666992 27V9.66699C0.666992 3.77299 3.77299 0.666992 9.66699 0.666992H20.333C26.227 0.666992 29.333 3.77299 29.333 9.66699V20.333C29.333 26.227 26.227 29.333 20.333 29.333ZM9.66699 2.66699C4.89299 2.66699 2.66699 4.89299 2.66699 9.66699V27C2.66659 27.0438 2.67493 27.0873 2.69152 27.1279C2.70812 27.1685 2.73263 27.2053 2.76363 27.2364C2.79464 27.2674 2.8315 27.2919 2.87209 27.3085C2.91267 27.3251 2.95615 27.3334 2.99999 27.333H20.333C25.107 27.333 27.333 25.107 27.333 20.333V9.66699C27.333 4.89299 25.107 2.66699 20.333 2.66699H9.66699ZM9.59999 22.667C8.99475 22.6751 8.41053 22.4452 7.97299 22.027C7.46599 21.52 7.23999 20.8 7.35999 20.027L7.73299 17.387C7.81299 16.813 8.17299 16.08 8.58599 15.667L15.506 8.74699C17.88 6.37299 19.946 7.43999 21.253 8.74699C22.28 9.77299 22.746 10.853 22.64 11.933C22.56 12.813 22.093 13.64 21.253 14.493L14.333 21.413C13.92 21.826 13.2 22.186 12.613 22.28L9.97299 22.653C9.85299 22.653 9.71999 22.667 9.59999 22.667ZM18.373 9.33299C17.88 9.33299 17.44 9.65299 16.933 10.146L10.013 17.066C9.90599 17.173 9.74599 17.506 9.71999 17.653L9.34599 20.293C9.33299 20.426 9.34599 20.546 9.39999 20.6C9.45399 20.654 9.57299 20.666 9.70599 20.653L12.346 20.28C12.506 20.253 12.826 20.093 12.933 19.986L19.853 13.066C20.36 12.56 20.626 12.12 20.666 11.72C20.706 11.266 20.44 10.733 19.853 10.146C19.266 9.58599 18.8 9.33299 18.373 9.33299ZM19.559 15.773C19.4684 15.7738 19.3783 15.7603 19.292 15.733C18.0956 15.3922 17.006 14.7516 16.1265 13.8719C15.2469 12.9922 14.6066 11.9025 14.266 10.706C14.119 10.173 14.426 9.62599 14.959 9.46599C15.0851 9.43048 15.217 9.42028 15.3471 9.43598C15.4772 9.45169 15.6029 9.49298 15.717 9.5575C15.8311 9.62201 15.9312 9.70846 16.0117 9.81187C16.0922 9.91527 16.1514 10.0336 16.186 10.16C16.4348 11.0253 16.8993 11.8133 17.536 12.45C18.1727 13.0866 18.9607 13.5512 19.826 13.8C20.057 13.8679 20.256 14.0163 20.387 14.2183C20.518 14.4203 20.5723 14.6626 20.54 14.9012C20.5077 15.1398 20.391 15.3589 20.211 15.5188C20.031 15.6788 19.7997 15.7689 19.559 15.773Z" fill="#387DE5"/>
</svg>
