<svg width="198" height="225" viewBox="0 0 198 225" fill="none" xmlns="http://www.w3.org/2000/svg">
<path opacity="0.5" d="M193.166 155.384H160.18V224.162H193.166V155.384Z" fill="#387DE5"/>
<path opacity="0.7" d="M160.18 155.375H76.9375V224.154H160.18V155.375Z" fill="#387DE5"/>
<path d="M124.446 170.24H123.135H122.141L121.582 169.096L120.789 170.24L119.711 167.885L118.701 170.24H115.795H114.467L113.982 168.67L113.532 170.24H112.671V155.384H124.446V170.24Z" fill="white"/>
<path opacity="0.4" d="M165.198 86.6056H103.092V155.376H165.198V86.6056Z" fill="#387DE5"/>
<path opacity="0.2" d="M197.266 86.6056H165.198V155.384H197.266V86.6056Z" fill="#387DE5"/>
<path d="M160.647 150.64C156.088 145.747 151.567 140.842 147.085 135.926L133.699 121.095L120.513 106.238C116.137 101.278 111.805 96.3009 107.519 91.307C112.084 96.2007 116.604 101.108 121.08 106.03L134.442 120.819L147.628 135.676C152.021 140.658 156.36 145.647 160.647 150.64Z" fill="black"/>
<path d="M160.647 91.3406C156.355 96.3511 152.023 101.328 147.653 106.272L134.467 121.095L121.105 135.893C116.652 140.809 112.131 145.714 107.543 150.607C111.836 145.597 116.167 140.619 120.538 135.676L133.699 120.853L147.06 106.063C151.553 101.136 156.082 96.2287 160.647 91.3406Z" fill="black"/>
<path d="M192.757 143.743H187.137V151.676H192.757V143.743Z" fill="white"/>
<path d="M85.213 200.805C81.2129 199.97 76.2859 200.529 73.1793 203.31C73.054 203.419 73.1793 203.586 73.3463 203.552C77.2018 202.376 81.1712 201.611 85.188 201.272C85.2363 201.257 85.2789 201.227 85.3099 201.187C85.3409 201.147 85.359 201.098 85.3617 201.047C85.3644 200.997 85.3517 200.946 85.3251 200.903C85.2986 200.86 85.2595 200.825 85.213 200.805Z" fill="white"/>
<path d="M88.0858 202.592C84.0773 201.757 79.1586 202.325 76.0521 205.139C75.9268 205.248 76.0521 205.415 76.2107 205.373C80.0683 204.195 84.041 203.433 88.0607 203.101C88.1212 203.094 88.177 203.065 88.2185 203.021C88.2599 202.976 88.2843 202.918 88.2873 202.857C88.2903 202.796 88.2717 202.736 88.2348 202.688C88.198 202.639 88.1452 202.605 88.0858 202.592Z" fill="white"/>
<path d="M90.9501 204.387C86.95 203.552 82.0313 204.112 78.9164 206.893C78.7995 207.001 78.9164 207.168 79.0834 207.135C82.939 205.959 86.9084 205.195 90.925 204.855C90.9734 204.839 91.0159 204.81 91.047 204.769C91.078 204.729 91.0961 204.68 91.0988 204.63C91.1015 204.579 91.0887 204.529 91.0622 204.485C91.0356 204.442 90.9965 204.408 90.9501 204.387Z" fill="white"/>
<path d="M72.9173 81.0225C72.3654 80.9555 71.8171 80.896 71.2725 80.844L71.3293 80.2135L72.9964 80.3998L72.9173 81.0225Z" fill="#263238"/>
<path d="M90.9939 165.23L90.4526 165.492L90.1799 164.928C91.1944 164.465 92.1804 163.941 93.1324 163.361L93.4653 163.895C92.675 164.352 91.8434 164.819 90.9939 165.23ZM96.2739 161.915L95.8882 161.425C96.7588 160.73 97.5765 159.972 98.3345 159.156L98.792 159.584C98.0089 160.418 97.1647 161.192 96.2666 161.9L96.2739 161.915ZM100.919 156.885L100.405 156.531C101.025 155.609 101.569 154.638 102.034 153.628L102.602 153.882C102.127 154.931 101.566 155.938 100.923 156.893L100.919 156.885ZM103.787 150.675L103.188 150.491C103.504 149.423 103.743 148.334 103.903 147.232L104.522 147.323C104.361 148.461 104.118 149.586 103.794 150.69L103.787 150.675ZM104.761 143.905L104.133 143.911C104.124 142.799 104.019 141.689 103.818 140.594L104.432 140.483C104.643 141.614 104.754 142.762 104.765 143.912L104.761 143.905ZM103.505 137.165L102.919 137.393C102.723 136.987 102.576 136.548 102.383 136.149C102.111 135.593 101.809 135.051 101.478 134.528C100.874 134.771 100.256 134.98 99.6283 135.153L99.457 134.55C100.455 134.271 101.427 133.907 102.362 133.46L102.558 133.365L102.83 133.929L102.627 134.027L102.064 134.3C102.387 134.815 102.682 135.348 102.946 135.895C103.15 136.298 103.335 136.737 103.509 137.173L103.505 137.165ZM105.738 132.059L105.345 131.572C106.201 130.875 106.972 130.079 107.64 129.2L108.139 129.581C107.441 130.501 106.636 131.336 105.742 132.066L105.738 132.059ZM96.2435 135.789C95.1019 135.908 93.9525 135.937 92.8062 135.874L92.848 135.251C93.957 135.311 95.069 135.282 96.1733 135.164L96.2435 135.789ZM99.3281 131.848C98.5437 131.067 97.6746 130.377 96.7369 129.789L97.0651 129.26C98.0463 129.867 98.9542 130.586 99.771 131.402L99.3281 131.848ZM109.885 126.593L109.317 126.339C109.768 125.326 110.118 124.271 110.363 123.189L110.97 123.332C110.723 124.46 110.363 125.56 109.896 126.616L109.885 126.593ZM89.4214 135.378L89.1908 135.304C88.1305 135.01 87.1469 134.489 86.3088 133.776L86.7332 133.311C87.501 133.963 88.4025 134.439 89.3742 134.705L89.59 134.768L89.4214 135.378ZM111.492 119.962L110.869 119.902C110.974 118.775 111.03 117.644 111.033 116.557L111.664 116.558C111.661 117.664 111.604 118.813 111.492 119.962ZM93.756 128.402C92.7474 128.069 91.7061 127.845 90.6498 127.734L90.5006 127.713L90.5611 127.09L90.7178 127.107C91.8117 127.231 92.8892 127.471 93.9316 127.825L93.756 128.402ZM85.5891 130.562L84.9703 130.471C85.0733 129.864 85.3222 129.29 85.6955 128.799C86.0688 128.308 86.5555 127.915 87.1138 127.654L87.3865 128.217C86.9229 128.438 86.5184 128.766 86.2059 129.173C85.8935 129.581 85.6821 130.057 85.5891 130.562ZM111.488 113.146L110.868 113.205C110.759 112.093 110.593 110.987 110.369 109.893L110.976 109.766C111.216 110.88 111.389 112.008 111.496 113.142L111.488 113.146ZM110.108 106.457L109.508 106.655C109.16 105.592 108.752 104.551 108.287 103.535L108.851 103.262C109.329 104.303 109.749 105.37 110.108 106.457ZM106.727 100.579C106.148 99.6132 105.52 98.6786 104.844 97.7788L105.346 97.3969C106.029 98.3089 106.666 99.2547 107.254 100.231L106.727 100.579ZM102.704 95.2333C101.96 94.4242 101.16 93.6331 100.311 92.875L100.735 92.4099C101.588 93.1756 102.421 93.9784 103.165 94.8061L102.704 95.2333ZM97.7394 90.7235C96.8629 90.0621 95.9301 89.4186 94.9595 88.812L95.2988 88.2861C96.2655 88.9038 97.2131 89.5587 98.0968 90.2351L97.7394 90.7235ZM92.0799 87.0972C91.1083 86.5652 90.0953 86.0626 89.0706 85.5935L89.3321 85.0218C90.3679 85.4948 91.3958 86.0088 92.3785 86.5446L92.0799 87.0972ZM85.9691 84.2829C84.9214 83.862 83.8615 83.512 82.7902 83.1767L82.9737 82.5778C84.0672 82.9208 85.1717 83.2864 86.1896 83.7031L85.9691 84.2829ZM79.5454 82.2601C78.4845 81.9847 77.3597 81.7496 76.2644 81.5372L76.377 80.9262C77.4873 81.1312 78.6083 81.3775 79.699 81.657L79.5454 82.2601Z" fill="#263238"/>
<path d="M87.1719 166.744C86.6358 166.926 86.0901 167.079 85.5374 167.201L85.4073 166.587C85.4073 166.587 86.014 166.46 86.9779 166.152L87.1719 166.744Z" fill="#263238"/>
<path d="M79.0445 169.293C80.1457 172.471 87.1022 171.184 85.6629 167.02C84.2236 162.855 77.9324 166.093 79.0445 169.293Z" fill="#263238"/>
<path d="M89.496 170.379C89.4737 171.791 87.5278 172.927 84.7325 172.479C82.7891 172.082 80.9394 171.318 79.2829 170.226C80.9611 169.187 82.8227 168.479 84.7671 168.14C87.644 167.778 89.5411 168.938 89.496 170.379Z" fill="#EBEBEB"/>
<path d="M79.3052 170.216C80.7511 170.175 82.1964 170.19 83.638 170.198C85.0796 170.206 86.5243 170.258 87.9649 170.341C86.519 170.381 85.0737 170.366 83.6321 170.358C82.1905 170.351 80.7458 170.298 79.3052 170.216Z" fill="#263238"/>
<path d="M86.7484 171.68C86.327 171.498 85.9169 171.29 85.5203 171.059C85.1286 170.829 84.7515 170.574 84.3911 170.297C84.8125 170.48 85.2226 170.687 85.6192 170.918C86.012 171.147 86.3892 171.402 86.7484 171.68Z" fill="#263238"/>
<path d="M82.9462 170.263C83.3079 169.956 83.6857 169.668 84.0781 169.4C84.4751 169.134 84.886 168.889 85.3091 168.666C84.5768 169.276 83.7852 169.811 82.9462 170.263Z" fill="#263238"/>
<path d="M82.5321 171.076C82.1179 170.879 81.7518 170.594 81.46 170.24C81.8742 170.437 82.2403 170.722 82.5321 171.076Z" fill="#263238"/>
<path d="M86.6809 162.028C85.7878 160.93 83.5651 161.244 81.6479 163.322C80.3655 164.84 79.3854 166.589 78.7603 168.475C80.7331 168.243 82.6431 167.634 84.3863 166.682C86.818 165.246 87.5998 163.161 86.6809 162.028Z" fill="#EBEBEB"/>
<path d="M78.7607 168.475C79.9223 167.617 81.0474 166.701 82.1685 165.797C83.2897 164.893 84.3999 163.967 85.4619 163.017C84.3078 163.872 83.1828 164.787 82.0616 165.691C80.9404 166.595 79.8452 167.515 78.7607 168.475Z" fill="#263238"/>
<path d="M83.6989 162.71C83.4843 163.101 83.2919 163.503 83.1228 163.916C82.9603 164.341 82.8199 164.774 82.7024 165.214C82.9224 164.826 83.115 164.423 83.2785 164.008C83.4437 163.584 83.5841 163.15 83.6989 162.71Z" fill="#263238"/>
<path d="M81.5767 166.185C82.53 166.213 83.4837 166.141 84.4218 165.969C83.4684 165.936 82.5143 166.009 81.5767 166.185Z" fill="#263238"/>
<path d="M80.7828 165.79C80.6783 165.992 80.5978 166.205 80.5429 166.426C80.4909 166.65 80.4617 166.878 80.4555 167.108C80.5589 166.904 80.6382 166.688 80.6918 166.465C80.7541 166.246 80.7847 166.018 80.7828 165.79Z" fill="#263238"/>
<path d="M79.0446 169.293C79.2721 169.214 79.5179 169.204 79.751 169.265C79.9841 169.325 80.1941 169.453 80.3545 169.633C80.5149 169.812 80.6185 170.036 80.6522 170.274C80.6859 170.513 80.6483 170.756 80.544 170.973C80.4397 171.19 80.2735 171.371 80.0663 171.494C79.8591 171.617 79.6201 171.675 79.3797 171.662C79.1392 171.649 78.9079 171.566 78.715 171.421C78.5221 171.277 78.3762 171.079 78.2958 170.852C78.1897 170.546 78.2088 170.21 78.3491 169.918C78.4893 169.626 78.7393 169.402 79.0446 169.293Z" fill="#455A64"/>
<path d="M78.2424 166.982C78.3942 166.929 78.5549 166.907 78.7152 166.916C78.8756 166.926 79.0326 166.967 79.1771 167.037C79.3217 167.107 79.4511 167.205 79.5578 167.325C79.6646 167.445 79.7467 167.585 79.7994 167.736C79.8521 167.888 79.8743 168.049 79.865 168.209C79.8556 168.369 79.8147 168.526 79.7446 168.671C79.6746 168.816 79.5767 168.945 79.4567 169.052C79.3366 169.158 79.1967 169.241 79.045 169.293C78.7385 169.4 78.4023 169.38 78.1103 169.238C77.8183 169.097 77.5945 168.845 77.4881 168.539C77.3816 168.232 77.4013 167.896 77.5428 167.604C77.6843 167.312 77.9359 167.088 78.2424 166.982Z" fill="#455A64"/>
<path d="M44.6341 89.3871C45.9978 88.5049 57.9978 81.9955 62.1487 76.2123C64.3667 73.1265 69.4315 64.0162 67.7265 62.4475C66.1728 61.019 64.1725 63.1739 64.1725 63.1739C64.1725 63.1739 66.3739 59.0757 64.1962 57.1049C62.0184 55.1341 58.8121 58.9577 58.8121 58.9577C58.8121 58.9577 60.767 54.5798 58.4563 52.7754C56.1457 50.9709 53.5671 55.3443 53.5671 55.3443C53.5671 55.3443 55.5421 51.4299 53.0113 50.743C49.9594 49.9186 47.1326 57.5568 44.1362 60.4718C43.4552 61.1352 29.4138 72.9176 29.4138 72.9176L44.6341 89.3871Z" fill="#D3766A"/>
<path d="M53.3995 55.3421C51.3053 60.9469 49.414 63.0398 44.7208 66.6086C44.6231 66.6559 44.7179 66.8326 44.8008 66.774C49.7153 63.7011 52.4606 61.4178 53.6597 55.4389C53.7346 55.1336 53.4927 55.0744 53.3995 55.3421Z" fill="#263238"/>
<path d="M58.6411 58.9293C55.96 64.5675 53.9281 66.8491 49.2877 70.9489C49.2125 70.9852 49.319 71.1286 49.3944 71.0735C54.2753 67.4325 56.9653 65.0924 58.9039 59.1083C58.9971 58.8406 58.7677 58.6733 58.6411 58.9293Z" fill="#263238"/>
<path d="M63.9385 63.3612C60.926 68.6403 58.8339 71.2385 53.818 74.6386C53.7921 74.6512 53.7722 74.6735 53.7627 74.7007C53.7532 74.7279 53.755 74.7577 53.7675 74.7836C53.78 74.8096 53.8024 74.8294 53.8296 74.8389C53.8568 74.8484 53.8866 74.8466 53.9125 74.8341C59.3673 71.8617 62.0429 68.6288 64.0713 63.4825C64.2402 63.1411 64.1257 63.0387 63.9385 63.3612Z" fill="#263238"/>
<path d="M25.5539 75.6383C25.5539 75.6383 27.5797 68.4153 29.1651 65.4407C30.7504 62.466 40.7578 53.5439 42.8075 55.5952C45.4544 58.2482 40.692 64.5313 37.9589 67.3004C37.9589 67.3004 44.086 73.4278 41.6116 78.6878C39.1372 83.9477 25.5539 75.6383 25.5539 75.6383Z" fill="#D3766A"/>
<path d="M43.3061 56.569C43.9724 60.7273 40.1478 64.1357 37.6934 67.0205C37.6569 67.0627 37.6307 67.1129 37.617 67.167C37.6033 67.2211 37.6023 67.2777 37.6143 67.3323C37.6263 67.3868 37.6508 67.4378 37.686 67.4812C37.7211 67.5246 37.7659 67.5592 37.8168 67.5823C40.216 70.3179 42.793 74.8786 41.87 78.6089C41.8463 78.7132 41.9949 78.7712 42.0373 78.6671C43.5746 74.8067 41.3989 70.1169 38.5826 67.2861C41.1495 64.3655 44.8308 60.776 43.3435 56.5695C43.3437 56.5508 43.3137 56.5654 43.3061 56.569Z" fill="#263238"/>
<path d="M40.4199 93.2161C39.0461 92.0253 34.2083 86.1277 33.0514 84.6372C31.8945 83.1467 27.3356 77.0586 26.1268 75.5375C26.0795 75.4398 26.1593 75.3362 26.2255 75.4155C27.4459 76.9032 32.4649 82.6574 33.6633 84.1186C34.8617 85.5798 39.583 91.5244 40.4992 93.1499C40.5035 93.1552 40.5068 93.1612 40.5088 93.1676C40.5108 93.1741 40.5116 93.1809 40.511 93.1877C40.5097 93.2013 40.5031 93.2139 40.4926 93.2227C40.4821 93.2315 40.4685 93.2357 40.4549 93.2345C40.4412 93.2332 40.4286 93.2266 40.4199 93.2161Z" fill="#263238"/>
<path d="M81.6714 12.1312L12.7251 76.0713L50.3623 116.655L119.309 52.7152L81.6714 12.1312Z" fill="#387DE5"/>
<path opacity="0.2" d="M81.6679 12.1336L58.498 33.6211L96.1353 74.2051L119.305 52.7176L81.6679 12.1336Z" fill="#71A1EA"/>
<path d="M81.5396 15.1911C82.6636 19.8547 83.8127 24.5061 84.9868 29.1455L88.5612 43.0753L92.2437 57.0178C93.4827 61.6505 94.7453 66.281 96.0316 70.9094C94.91 66.2508 93.761 61.5994 92.5844 56.955L89.01 43.0252L85.342 29.1128C84.0934 24.46 82.8259 19.8195 81.5396 15.1911Z" fill="#263238"/>
<path d="M115.996 52.3473C111.495 50.7145 106.974 49.1076 102.43 47.5265L88.837 42.8212L75.2163 38.2126C70.6745 36.6988 66.1177 35.1923 61.5459 33.693C66.0487 35.3308 70.5705 36.9377 75.1115 38.5138L88.7048 43.2191L102.325 47.8277C106.887 49.3691 111.444 50.8757 115.996 52.3473Z" fill="#263238"/>
<path d="M31.24 74.6918L31.6196 74.3397L26.6736 69.0065L26.294 69.3586L31.24 74.6918Z" fill="#263238"/>
<path d="M30.3352 75.5221L30.7148 75.17L25.7689 69.8368L25.3892 70.1889L30.3352 75.5221Z" fill="#263238"/>
<path d="M29.4314 76.3794L29.811 76.0273L24.865 70.6941L24.4854 71.0462L29.4314 76.3794Z" fill="#263238"/>
<path d="M28.5227 77.1977L28.9023 76.8457L23.9573 71.5116L23.5776 71.8636L28.5227 77.1977Z" fill="#263238"/>
<path d="M27.616 78.0454L27.9956 77.6934L23.0496 72.3601L22.67 72.7122L27.616 78.0454Z" fill="#263238"/>
<path d="M26.7087 78.8769L27.0884 78.5248L22.1424 73.1915L21.7628 73.5436L26.7087 78.8769Z" fill="#263238"/>
<path d="M25.8049 79.7462L26.1846 79.3942L21.2386 74.0609L20.8589 74.413L25.8049 79.7462Z" fill="#263238"/>
<path d="M24.8953 80.5759L25.2749 80.2238L20.328 74.8914L19.9484 75.2435L24.8953 80.5759Z" fill="#263238"/>
<path d="M23.9871 81.432L24.3667 81.08L19.4207 75.7467L19.0411 76.0988L23.9871 81.432Z" fill="#263238"/>
<path d="M30.7639 65.966L28.9364 66.9056L32.3434 63.727L31.2669 65.4908L33.0863 67.4494C34.2513 66.6168 35.6211 67.2623 37.2857 69.0546L33.8897 72.2556C32.2286 70.4709 31.6833 69.0557 32.5978 67.9546L30.7639 65.966Z" fill="#263238"/>
<path d="M35.568 65.6182L36.4566 64.7895L34.0334 62.1769L36.3133 60.0629L38.7366 62.6756L39.6327 61.8433L40.1175 66.4511L35.568 65.6182Z" fill="#263238"/>
<path opacity="0.1" d="M12.7297 76.0713L15.8159 79.4023L67.2974 43.1097L58.4991 33.6268L12.7297 76.0713Z" fill="black"/>
<path d="M132.409 53.0446L109.232 74.5338L96.1337 74.2086L119.308 52.7119L132.409 53.0446Z" fill="#3271CE"/>
<path d="M49.703 129.747L72.8771 108.25L73.5344 95.1675L50.3568 116.657L49.703 129.747Z" fill="#3271CE"/>
<path d="M42.201 65.3691C43.9351 64.7158 45.6957 64.0405 47.4839 63.5374C49.2721 63.0342 51.0779 62.606 52.9124 62.2753C55.2929 61.7954 57.7204 61.5892 60.1477 61.6607C55.8313 61.8468 49.3925 63.5326 47.597 64.0207C45.8016 64.5088 43.9921 64.9295 42.2114 65.429C42.1735 65.4658 42.1559 65.3909 42.201 65.3691Z" fill="#263238"/>
<path d="M43.8899 71.8716C46.1369 71.1279 48.3551 70.3055 50.6419 69.6632C52.9286 69.021 55.1375 68.6205 57.4558 68.1392C57.6319 68.1005 57.5931 68.212 57.417 68.2508C55.1162 68.8256 53.0452 69.5305 50.7589 70.1354C48.4726 70.7403 46.1578 71.2477 43.8967 71.924C43.8666 71.9385 43.8487 71.8822 43.8899 71.8716Z" fill="#263238"/>
<path d="M44.3283 77.7076C47.7595 76.4847 51.308 75.6201 54.9172 75.1276C55.0969 75.0964 55.0316 75.23 54.8481 75.2724C51.312 76.0551 48.5327 76.6573 44.3753 77.824C44.3115 77.8456 44.257 77.7328 44.3283 77.7076Z" fill="#263238"/>
<path d="M190.886 219.419C188.448 214.531 186.029 209.626 183.629 204.705L176.472 189.907L169.408 175.051C167.069 170.09 164.75 165.113 162.451 160.119C164.901 165.013 167.323 169.918 169.716 174.833L176.865 189.631L183.93 204.488C186.279 209.448 188.598 214.425 190.886 219.419Z" fill="black"/>
<path d="M190.886 160.119C188.592 165.13 186.274 170.107 183.93 175.051L176.865 189.907L169.716 204.705C167.317 209.621 164.895 214.525 162.451 219.419C164.75 214.409 167.069 209.431 169.408 204.488L176.472 189.631L183.629 174.842C186.029 169.915 188.448 165.007 190.886 160.119Z" fill="black"/>
</svg>
