<svg width="23" height="22" viewBox="0 0 23 22" fill="none" xmlns="http://www.w3.org/2000/svg">
<path d="M16.5 17.4302H12.5L8.05 20.3902C7.89982 20.4903 7.72528 20.5478 7.545 20.5564C7.36472 20.5651 7.18546 20.5247 7.02635 20.4395C6.86724 20.3543 6.73424 20.2275 6.64154 20.0727C6.54884 19.9178 6.49992 19.7407 6.5 19.5602V17.4302C3.5 17.4302 1.5 15.4302 1.5 12.4302V6.43018C1.5 3.43018 3.5 1.43018 6.5 1.43018H16.5C19.5 1.43018 21.5 3.43018 21.5 6.43018V12.4302C21.5 15.4302 19.5 17.4302 16.5 17.4302Z" stroke="#292D32" stroke-width="1.5" stroke-miterlimit="10" stroke-linecap="round" stroke-linejoin="round"/>
<path d="M11.5 10.3604V10.1504C11.5 9.47035 11.92 9.11035 12.34 8.82035C12.75 8.54035 13.16 8.18035 13.16 7.52035C13.16 6.60035 12.42 5.86035 11.5 5.86035C10.58 5.86035 9.84003 6.60035 9.84003 7.52035" stroke="#292D32" stroke-width="1.5" stroke-linecap="round" stroke-linejoin="round"/>
<path d="M11.495 12.75H11.505" stroke="#292D32" stroke-width="1.5" stroke-linecap="round" stroke-linejoin="round"/>
</svg>
