<svg width="23" height="22" viewBox="0 0 23 22" fill="none" xmlns="http://www.w3.org/2000/svg">
<path d="M16.5 17.43H12.5L8.05 20.39C7.89982 20.4901 7.72528 20.5476 7.545 20.5563C7.36472 20.5649 7.18546 20.5245 7.02635 20.4393C6.86724 20.3541 6.73424 20.2273 6.64154 20.0725C6.54884 19.9176 6.49992 19.7405 6.5 19.56V17.43C3.5 17.43 1.5 15.43 1.5 12.43V6.42999C1.5 3.42999 3.5 1.42999 6.5 1.42999H16.5C19.5 1.42999 21.5 3.42999 21.5 6.42999V12.43C21.5 15.43 19.5 17.43 16.5 17.43Z" stroke="white" stroke-width="1.5" stroke-miterlimit="10" stroke-linecap="round" stroke-linejoin="round"/>
<path d="M11.5 10.36V10.15C11.5 9.46998 11.92 9.10998 12.34 8.81998C12.75 8.53998 13.16 8.17999 13.16 7.51999C13.16 6.59999 12.42 5.85999 11.5 5.85999C10.58 5.85999 9.83997 6.59999 9.83997 7.51999" stroke="white" stroke-width="1.5" stroke-linecap="round" stroke-linejoin="round"/>
<path d="M11.495 12.75H11.505" stroke="white" stroke-width="1.5" stroke-linecap="round" stroke-linejoin="round"/>
</svg>
