<svg width="26" height="18" viewBox="0 0 26 18" fill="none" xmlns="http://www.w3.org/2000/svg">
<path d="M11.6667 17.5H14.3333C15.3459 17.5 16.1667 16.6792 16.1667 15.6667C16.1667 14.6541 15.3459 13.8333 14.3333 13.8333H11.6667C10.6541 13.8333 9.83333 14.6541 9.83333 15.6667C9.83333 16.6792 10.6541 17.5 11.6667 17.5ZM2.33333 4.16667H23.6667C24.6792 4.16667 25.5 3.34586 25.5 2.33333C25.5 1.32081 24.6792 0.5 23.6667 0.5H2.33333C1.32081 0.5 0.5 1.32081 0.5 2.33333C0.5 3.34586 1.32081 4.16667 2.33333 4.16667ZM6.33333 10.8333H19.6667C20.6792 10.8333 21.5 10.0125 21.5 9C21.5 7.98748 20.6792 7.16667 19.6667 7.16667H6.33333C5.32081 7.16667 4.5 7.98748 4.5 9C4.5 10.0125 5.32081 10.8333 6.33333 10.8333Z" fill="#387DE5" stroke="#387DE5"/>
</svg>
