<svg width="32" height="32" viewBox="0 0 32 32" fill="none" xmlns="http://www.w3.org/2000/svg">
<g clip-path="url(#clip0_333_8759)">
<mask id="mask0_333_8759" style="mask-type:luminance" maskUnits="userSpaceOnUse" x="0" y="0" width="32" height="32">
<path d="M0 0H32V32H0V0Z" fill="white"/>
</mask>
<g mask="url(#mask0_333_8759)">
<path d="M16 19.9893C14.9391 19.9893 13.9217 20.4107 13.1716 21.1608C12.4214 21.911 12 22.9284 12 23.9893V31.9893H20V23.9893C20 22.9284 19.5786 21.911 18.8284 21.1608C18.0783 20.4107 17.0609 19.9893 16 19.9893Z" fill="#387DE5"/>
<path d="M22.6667 23.9893V31.9893H28C29.0609 31.9893 30.0783 31.5679 30.8284 30.8177C31.5786 30.0676 32 29.0502 32 27.9893V15.8293C32.0007 15.1362 31.7314 14.47 31.2493 13.972L19.9187 1.72264C19.4193 1.18235 18.8136 0.751221 18.1395 0.456358C17.4655 0.161494 16.7377 0.00927734 16.002 0.00927734C15.2663 0.00927734 14.5385 0.161494 13.8645 0.456358C13.1904 0.751221 12.5847 1.18235 12.0853 1.72264L0.774667 13.968C0.278284 14.4677 -0.00020734 15.1436 1.15822e-07 15.848V27.9893C1.15822e-07 29.0502 0.421427 30.0676 1.17157 30.8177C1.92172 31.5679 2.93913 31.9893 4 31.9893H9.33333V23.9893C9.35867 20.3533 12.2933 17.3853 15.8373 17.3C19.5013 17.2106 22.6387 20.2306 22.6667 23.9893Z" fill="#387DE5"/>
<path d="M16 19.9893C14.9391 19.9893 13.9217 20.4107 13.1716 21.1608C12.4214 21.911 12 22.9284 12 23.9893V31.9893H20V23.9893C20 22.9284 19.5786 21.911 18.8284 21.1608C18.0783 20.4107 17.0609 19.9893 16 19.9893Z" fill="#387DE5"/>
</g>
</g>
<defs>
<clipPath id="clip0_333_8759">
<rect width="32" height="32" fill="white"/>
</clipPath>
</defs>
</svg>
