<svg width="24" height="24" viewBox="0 0 24 24" fill="none" xmlns="http://www.w3.org/2000/svg">
<path d="M10 15.5C9.59 15.5 9.25 15.84 9.25 16.25V17.75C9.25 18.16 9.59 18.5 10 18.5C10.41 18.5 10.75 18.16 10.75 17.75V16.25C10.75 15.84 10.41 15.5 10 15.5Z" fill="#292D32"/>
<path d="M22 21.249H21V9.97899C21 9.35899 20.72 8.77899 20.23 8.39899L13.23 2.95899C12.51 2.38899 11.49 2.38899 10.77 2.95899L3.77 8.39899C3.28 8.77899 3 9.35899 3 9.96899L2.95 21.249H2C1.80109 21.249 1.61032 21.328 1.46967 21.4687C1.32902 21.6093 1.25 21.8001 1.25 21.999C1.25 22.1979 1.32902 22.3887 1.46967 22.5293C1.61032 22.67 1.80109 22.749 2 22.749H22C22.1989 22.749 22.3897 22.67 22.5303 22.5293C22.671 22.3887 22.75 22.1979 22.75 21.999C22.75 21.8001 22.671 21.6093 22.5303 21.4687C22.3897 21.328 22.1989 21.249 22 21.249ZM10.5 6.74899H13.5C13.91 6.74899 14.25 7.08899 14.25 7.49899C14.25 7.90899 13.91 8.24899 13.5 8.24899H10.5C10.09 8.24899 9.75 7.90899 9.75 7.49899C9.75 7.08899 10.09 6.74899 10.5 6.74899ZM17 21.249H7V12.499C7 11.669 7.67 10.999 8.5 10.999H15.5C16.33 10.999 17 11.669 17 12.499V21.249Z" fill="#292D32"/>
</svg>
