<svg width="22" height="22" viewBox="0 0 22 22" fill="none" xmlns="http://www.w3.org/2000/svg">
<path d="M16.2397 8.71049H6.25949C5.84999 8.71049 5.50949 8.36999 5.50949 7.96049C5.50949 7.55099 5.84999 7.21049 6.25949 7.21049H16.2397C16.65 7.21049 16.9897 7.55024 16.9897 7.96049C16.9897 8.37074 16.65 8.71049 16.2397 8.71049ZM11.25 8.71049C10.8397 8.71049 10.5 8.37074 10.5 7.96049V6.28049C10.5 5.87024 10.8397 5.53049 11.25 5.53049C11.6602 5.53049 12 5.87024 12 6.28049V7.96049C12 8.37074 11.6602 8.71049 11.25 8.71049ZM6.24974 16.47C5.84024 16.47 5.49974 16.1302 5.49974 15.72C5.49974 15.3097 5.84024 14.97 6.24974 14.97C9.96974 14.97 12.9997 11.82 12.9997 7.94024C12.9997 7.52999 13.3402 7.19024 13.7497 7.19024C14.1592 7.19024 14.4997 7.52999 14.4997 7.94024C14.4997 12.6502 10.8 16.47 6.24974 16.47ZM16.251 16.47C14.2815 16.47 12.4515 15.4905 11.1112 13.7002C10.9919 13.5411 10.9407 13.3411 10.9688 13.1442C10.9969 12.9473 11.1021 12.7696 11.2612 12.6502C11.4204 12.5309 11.6204 12.4796 11.8173 12.5078C12.0142 12.5359 12.1919 12.6411 12.3112 12.8002C13.371 14.2005 14.7712 14.97 16.2615 14.97C16.671 14.97 17.0115 15.3105 17.0115 15.72C17.0115 16.1295 16.6612 16.47 16.251 16.47ZM11.25 21.75C5.31974 21.75 0.500244 16.9305 0.500244 11.0002C0.500244 5.06999 5.31974 0.250488 11.25 0.250488C17.1802 0.250488 21.9997 5.06999 21.9997 11.0002C21.9997 16.9305 17.1802 21.75 11.25 21.75ZM11.25 1.75049C6.14999 1.75049 2.00024 5.90024 2.00024 11.0002C2.00024 16.1002 6.14999 20.25 11.25 20.25C16.35 20.25 20.4997 16.1002 20.4997 11.0002C20.4997 5.90024 16.35 1.75049 11.25 1.75049Z" fill="#212121"/>
</svg>
