<svg width="22" height="22" viewBox="0 0 22 22" fill="none" xmlns="http://www.w3.org/2000/svg">
<path d="M16.2397 8.71024H6.25949C5.84999 8.71024 5.50949 8.36974 5.50949 7.96024C5.50949 7.55074 5.84999 7.21024 6.25949 7.21024H16.2397C16.65 7.21024 16.9897 7.54999 16.9897 7.96024C16.9897 8.37049 16.65 8.71024 16.2397 8.71024ZM11.25 8.71024C10.8397 8.71024 10.5 8.37049 10.5 7.96024V6.28024C10.5 5.86999 10.8397 5.53024 11.25 5.53024C11.6602 5.53024 12 5.86999 12 6.28024V7.96024C12 8.37049 11.6602 8.71024 11.25 8.71024ZM6.24974 16.4697C5.84024 16.4697 5.49974 16.13 5.49974 15.7197C5.49974 15.3095 5.84024 14.9697 6.24974 14.9697C9.96974 14.9697 12.9997 11.8197 12.9997 7.93999C12.9997 7.52974 13.3402 7.18999 13.7497 7.18999C14.1592 7.18999 14.4997 7.52974 14.4997 7.93999C14.4997 12.65 10.8 16.4697 6.24974 16.4697ZM16.251 16.4697C14.2815 16.4697 12.4515 15.4902 11.1112 13.7C10.9919 13.5409 10.9407 13.3408 10.9688 13.1439C10.9969 12.947 11.1021 12.7693 11.2612 12.65C11.4204 12.5306 11.6204 12.4794 11.8173 12.5075C12.0142 12.5357 12.1919 12.6409 12.3112 12.8C13.371 14.2002 14.7712 14.9697 16.2615 14.9697C16.671 14.9697 17.0115 15.3102 17.0115 15.7197C17.0115 16.1292 16.6612 16.4697 16.251 16.4697ZM11.25 21.7497C5.31974 21.7497 0.500244 16.9302 0.500244 11C0.500244 5.06974 5.31974 0.250244 11.25 0.250244C17.1802 0.250244 21.9997 5.06974 21.9997 11C21.9997 16.9302 17.1802 21.7497 11.25 21.7497ZM11.25 1.75024C6.14999 1.75024 2.00024 5.89999 2.00024 11C2.00024 16.1 6.14999 20.2497 11.25 20.2497C16.35 20.2497 20.4997 16.1 20.4997 11C20.4997 5.89999 16.35 1.75024 11.25 1.75024Z" fill="white"/>
</svg>
