<svg width="30" height="30" viewBox="0 0 30 30" fill="none" xmlns="http://www.w3.org/2000/svg">
<path opacity="0.4" d="M20.9358 0.833252H9.06409C3.90742 0.833252 0.833252 3.90742 0.833252 9.06409V20.9216C0.833252 26.0924 3.90742 29.1666 9.06409 29.1666H20.9216C26.0783 29.1666 29.1524 26.0924 29.1524 20.9358V9.06409C29.1666 3.90742 26.0924 0.833252 20.9358 0.833252Z" fill="#292D32"/>
<path d="M11.6 20.3549C11.3309 20.3549 11.0617 20.2557 10.8492 20.0432L7.3217 16.5157C6.48587 15.6799 6.48587 14.3341 7.3217 13.4982L10.8492 9.97072C11.26 9.55989 11.94 9.55989 12.3509 9.97072C12.7617 10.3816 12.7617 11.0616 12.3509 11.4724L8.82337 14.9999L12.3509 18.5416C12.7617 18.9524 12.7617 19.6324 12.3509 20.0432C12.1384 20.2416 11.8692 20.3549 11.6 20.3549Z" fill="#292D32"/>
<path d="M18.3998 20.3549C18.1307 20.3549 17.8615 20.2557 17.649 20.0432C17.4514 19.8433 17.3406 19.5735 17.3406 19.2924C17.3406 19.0113 17.4514 18.7415 17.649 18.5416L21.1765 14.9999L17.649 11.4582C17.4514 11.2583 17.3406 10.9885 17.3406 10.7074C17.3406 10.4263 17.4514 10.1565 17.649 9.95656C18.0598 9.54573 18.7398 9.54573 19.1507 9.95656L22.6782 13.4841C23.514 14.3199 23.514 15.6657 22.6782 16.5016L19.1507 20.0291C18.9523 20.2416 18.669 20.3549 18.3998 20.3549Z" fill="#292D32"/>
</svg>
