<svg width="30" height="30" viewBox="0 0 30 30" fill="none" xmlns="http://www.w3.org/2000/svg">
<path opacity="0.4" d="M20.9359 0.833313H9.06421C3.90754 0.833313 0.833374 3.90748 0.833374 9.06415V20.9216C0.833374 26.0925 3.90754 29.1666 9.06421 29.1666H20.9217C26.0784 29.1666 29.1525 26.0925 29.1525 20.9358V9.06415C29.1667 3.90748 26.0925 0.833313 20.9359 0.833313Z" fill="#387DE5"/>
<path d="M11.6 20.355C11.3309 20.355 11.0617 20.2558 10.8492 20.0433L7.3217 16.5158C6.48587 15.68 6.48587 14.3341 7.3217 13.4983L10.8492 9.97078C11.26 9.55995 11.94 9.55995 12.3509 9.97078C12.7617 10.3816 12.7617 11.0616 12.3509 11.4725L8.82337 15L12.3509 18.5416C12.7617 18.9525 12.7617 19.6325 12.3509 20.0433C12.1384 20.2416 11.8692 20.355 11.6 20.355Z" fill="#387DE5"/>
<path d="M18.4001 20.355C18.1309 20.355 17.8617 20.2558 17.6492 20.0433C17.4516 19.8433 17.3408 19.5736 17.3408 19.2925C17.3408 19.0113 17.4516 18.7416 17.6492 18.5416L21.1767 15L17.6492 11.4583C17.4516 11.2583 17.3408 10.9886 17.3408 10.7075C17.3408 10.4263 17.4516 10.1566 17.6492 9.95662C18.0601 9.54579 18.7401 9.54579 19.1509 9.95662L22.6784 13.4841C23.5142 14.32 23.5142 15.6658 22.6784 16.5016L19.1509 20.0291C18.9526 20.2416 18.6692 20.355 18.4001 20.355Z" fill="#387DE5"/>
</svg>
