<svg width="32" height="32" viewBox="0 0 32 32" fill="none" xmlns="http://www.w3.org/2000/svg">
<mask id="mask0_333_8660" style="mask-type:luminance" maskUnits="userSpaceOnUse" x="0" y="0" width="32" height="32">
<path d="M0 0H32V32H0V0Z" fill="white"/>
</mask>
<g mask="url(#mask0_333_8660)">
<path d="M29.6 2.88396C28.8399 2.24978 27.9481 1.79282 26.9894 1.54628C26.0307 1.29974 25.0291 1.2698 24.0573 1.45863L21.7053 2.03463C20.4779 2.25956 19.3682 2.90775 18.5694 3.86639C17.7706 4.82504 17.3332 6.03344 17.3333 7.2813V27.904C16.4491 28.0333 15.5509 28.0333 14.6667 27.904V7.2813C14.6711 6.04495 14.2438 4.84584 13.4585 3.8909C12.6732 2.93596 11.5793 2.2851 10.3653 2.05063L7.86667 1.44263C6.90554 1.26675 5.91751 1.3043 4.9725 1.5526C4.0275 1.8009 3.14862 2.25389 2.39809 2.8795C1.64756 3.50511 1.04371 4.28806 0.62931 5.17291C0.214904 6.05776 6.50833e-05 7.02288 0 7.99996L0 22.3906C7.66078e-05 23.9517 0.547969 25.4632 1.54818 26.6618C2.54839 27.8603 3.93748 28.6699 5.47333 28.9493L13.8547 30.4733C15.2733 30.7312 16.7267 30.7312 18.1453 30.4733L26.5333 28.9493C28.068 28.6685 29.4555 27.8583 30.4544 26.6599C31.4533 25.4615 32.0002 23.9507 32 22.3906V7.99996C32.0006 7.02322 31.7859 6.05836 31.371 5.17409C30.9562 4.28981 30.3515 3.50788 29.6 2.88396Z" fill="#838C9A"/>
</g>
</svg>
