<svg width="19" height="19" viewBox="0 0 19 19" fill="none" xmlns="http://www.w3.org/2000/svg">
<path d="M14.9413 12.9476C14.8427 12.9481 14.7451 12.9289 14.654 12.8911C14.563 12.8534 14.4804 12.7979 14.411 12.7279C14.2717 12.5867 14.1936 12.3963 14.1936 12.198C14.1936 11.9997 14.2717 11.8093 14.411 11.6681L16.4413 9.63789L14.411 7.60764C14.1208 7.31814 14.1208 6.83814 14.411 6.54789C14.7013 6.25764 15.1813 6.25764 15.4708 6.54789L18.0313 9.10764C18.1708 9.24886 18.249 9.43937 18.249 9.63789C18.249 9.8364 18.1708 10.0269 18.0313 10.1681L15.47 12.7279C15.32 12.8779 15.1303 12.9476 14.9405 12.9476H14.9413ZM17.4298 10.3879H7.25977C6.84952 10.3879 6.50977 10.0481 6.50977 9.63789C6.50977 9.22764 6.84952 8.88789 7.25977 8.88789H17.4298C17.84 8.88789 18.1798 9.22764 18.1798 9.63789C18.1798 10.0481 17.84 10.3879 17.4298 10.3879ZM9.26002 18.3281C4.10977 18.3281 0.509766 14.7281 0.509766 9.57789C0.509766 4.42764 4.10977 0.827637 9.26002 0.827637C9.66952 0.827637 10.01 1.16814 10.01 1.57764C10.01 1.98714 9.66952 2.32764 9.26002 2.32764C4.98952 2.32764 2.00977 5.30814 2.00977 9.57789C2.00977 13.8476 4.98952 16.8281 9.26002 16.8281C9.66952 16.8281 10.01 17.1679 10.01 17.5781C10.01 17.9884 9.66952 18.3281 9.26002 18.3281Z" fill="#E43F40"/>
</svg>
