<svg width="170" height="185" viewBox="0 0 170 185" fill="none" xmlns="http://www.w3.org/2000/svg">
<path d="M72.1831 81.7426C71.6312 81.6756 71.083 81.6161 70.5384 81.5641L70.5952 80.9336L72.2623 81.1199L72.1831 81.7426Z" fill="#263238"/>
<path d="M90.26 165.95L89.7187 166.212L89.446 165.648C90.4605 165.185 91.4465 164.661 92.3986 164.081L92.7314 164.615C91.9411 165.072 91.1095 165.539 90.26 165.95ZM95.54 162.635L95.1543 162.145C96.0249 161.45 96.8426 160.692 97.6006 159.876L98.0581 160.304C97.275 161.138 96.4308 161.912 95.5327 162.62L95.54 162.635ZM100.185 157.606L99.6706 157.251C100.291 156.329 100.835 155.358 101.3 154.348L101.868 154.602C101.393 155.651 100.832 156.658 100.189 157.613L100.185 157.606ZM103.053 151.395L102.454 151.211C102.77 150.143 103.009 149.054 103.169 147.953L103.788 148.043C103.628 149.181 103.384 150.307 103.06 151.41L103.053 151.395ZM104.027 144.625L103.4 144.631C103.39 143.519 103.285 142.409 103.085 141.314L103.699 141.203C103.909 142.334 104.02 143.482 104.031 144.632L104.027 144.625ZM102.771 137.885L102.185 138.113C101.989 137.707 101.842 137.268 101.649 136.87C101.377 136.313 101.075 135.772 100.744 135.248C100.14 135.492 99.5224 135.7 98.8944 135.873L98.7231 135.27C99.7212 134.992 100.693 134.627 101.628 134.18L101.824 134.086L102.096 134.649L101.893 134.748L101.33 135.02C101.653 135.535 101.948 136.068 102.213 136.616C102.416 137.018 102.601 137.457 102.775 137.893L102.771 137.885ZM105.004 132.779L104.611 132.292C105.467 131.595 106.238 130.799 106.906 129.921L107.405 130.301C106.707 131.221 105.902 132.056 105.008 132.787L105.004 132.779ZM95.5097 136.509C94.368 136.628 93.2186 136.657 92.0724 136.594L92.1142 135.971C93.2231 136.031 94.3351 136.002 95.4394 135.884L95.5097 136.509ZM98.5942 132.568C97.8098 131.787 96.9407 131.097 96.003 130.509L96.3312 129.98C97.3124 130.587 98.2204 131.306 99.0371 132.122L98.5942 132.568ZM109.151 127.313L108.583 127.059C109.034 126.046 109.384 124.991 109.629 123.909L110.236 124.052C109.989 125.18 109.629 126.28 109.162 127.336L109.151 127.313ZM88.6875 136.098L88.4569 136.024C87.3966 135.73 86.413 135.209 85.5749 134.496L85.9994 134.031C86.7672 134.683 87.6687 135.159 88.6403 135.425L88.8562 135.488L88.6875 136.098ZM110.758 120.682L110.135 120.622C110.24 119.495 110.296 118.364 110.299 117.277L110.93 117.278C110.927 118.384 110.87 119.533 110.758 120.682ZM93.0221 129.122C92.0135 128.789 90.9722 128.565 89.9159 128.454L89.7668 128.433L89.8272 127.81L89.9839 127.827C91.0778 127.951 92.1553 128.191 93.1977 128.545L93.0221 129.122ZM84.8552 131.282L84.2364 131.192C84.3395 130.584 84.5883 130.01 84.9616 129.519C85.3349 129.028 85.8216 128.635 86.3799 128.374L86.6526 128.937C86.1891 129.158 85.7845 129.486 85.472 129.893C85.1596 130.301 84.9482 130.777 84.8552 131.282ZM110.754 113.866L110.134 113.925C110.025 112.813 109.859 111.708 109.636 110.613L110.242 110.487C110.482 111.601 110.656 112.728 110.762 113.862L110.754 113.866ZM109.374 107.177L108.774 107.375C108.426 106.313 108.018 105.271 107.553 104.255L108.117 103.982C108.595 105.023 109.015 106.09 109.374 107.177ZM105.993 101.299C105.415 100.333 104.786 99.3987 104.11 98.4989L104.612 98.117C105.295 99.029 105.932 99.9748 106.521 100.951L105.993 101.299ZM101.97 95.9534C101.226 95.1443 100.426 94.3532 99.5767 93.5951L100.001 93.13C100.854 93.8957 101.687 94.6984 102.431 95.5262L101.97 95.9534ZM97.0055 91.4435C96.129 90.7821 95.1962 90.1387 94.2256 89.5321L94.5649 89.0062C95.5316 89.6239 96.4792 90.2788 97.363 90.9552L97.0055 91.4435ZM91.346 87.8173C90.3745 87.2853 89.3614 86.7827 88.3367 86.3136L88.5982 85.7419C89.6341 86.2149 90.6619 86.7289 91.6446 87.2647L91.346 87.8173ZM85.2352 85.003C84.1875 84.5821 83.1276 84.2321 82.0564 83.8968L82.2398 83.2978C83.3334 83.6409 84.4378 84.0065 85.4558 84.4232L85.2352 85.003ZM78.8115 82.9802C77.7507 82.7048 76.6258 82.4696 75.5305 82.2573L75.6431 81.6462C76.7534 81.8513 77.8744 82.0976 78.9651 82.3771L78.8115 82.9802Z" fill="#263238"/>
<path d="M86.438 167.465C85.9019 167.646 85.3562 167.799 84.8035 167.921L84.6734 167.307C84.6734 167.307 85.2801 167.18 86.2441 166.872L86.438 167.465Z" fill="#263238"/>
<path d="M78.3109 170.013C79.412 173.191 86.3685 171.904 84.9292 167.74C83.4899 163.575 77.1988 166.813 78.3109 170.013Z" fill="#263238"/>
<path d="M88.7619 171.099C88.7396 172.511 86.7937 173.647 83.9984 173.199C82.0549 172.802 80.2052 172.038 78.5487 170.946C80.227 169.907 82.0885 169.199 84.033 168.86C86.9099 168.498 88.807 169.658 88.7619 171.099Z" fill="#EBEBEB"/>
<path d="M78.5713 170.936C80.0173 170.895 81.4625 170.91 82.9041 170.918C84.3457 170.926 85.7904 170.978 87.231 171.061C85.7851 171.101 84.3398 171.086 82.8982 171.078C81.4567 171.071 80.0119 171.018 78.5713 170.936Z" fill="#263238"/>
<path d="M86.0145 172.4C85.5932 172.218 85.1831 172.01 84.7864 171.779C84.3947 171.549 84.0176 171.294 83.6572 171.017C84.0786 171.2 84.4887 171.407 84.8854 171.639C85.2781 171.867 85.6553 172.122 86.0145 172.4Z" fill="#263238"/>
<path d="M82.2124 170.983C82.574 170.676 82.9518 170.388 83.3442 170.121C83.7413 169.854 84.1522 169.609 84.5752 169.386C83.8429 169.996 83.0513 170.531 82.2124 170.983Z" fill="#263238"/>
<path d="M81.7982 171.796C81.384 171.599 81.018 171.314 80.7261 170.96C81.1403 171.157 81.5064 171.442 81.7982 171.796Z" fill="#263238"/>
<path d="M85.9473 162.748C85.0541 161.65 82.8314 161.964 80.9142 164.042C79.6319 165.56 78.6517 167.309 78.0266 169.196C79.9995 168.963 81.9094 168.354 83.6527 167.402C86.0843 165.966 86.8662 163.881 85.9473 162.748Z" fill="#EBEBEB"/>
<path d="M78.0265 169.196C79.1882 168.337 80.3132 167.422 81.4344 166.517C82.5556 165.613 83.6658 164.687 84.7278 163.737C83.5737 164.592 82.4486 165.507 81.3275 166.412C80.2063 167.316 79.1111 168.235 78.0265 169.196Z" fill="#263238"/>
<path d="M82.9652 163.43C82.7506 163.821 82.5583 164.224 82.3892 164.636C82.2266 165.061 82.0863 165.494 81.9687 165.934C82.1888 165.546 82.3813 165.143 82.5448 164.728C82.7101 164.304 82.8505 163.87 82.9652 163.43Z" fill="#263238"/>
<path d="M80.8428 166.905C81.7961 166.933 82.7498 166.861 83.6879 166.689C82.7345 166.657 81.7804 166.729 80.8428 166.905Z" fill="#263238"/>
<path d="M80.0487 166.51C79.9442 166.712 79.8637 166.925 79.8088 167.146C79.7568 167.37 79.7275 167.598 79.7214 167.828C79.8248 167.624 79.9041 167.408 79.9576 167.185C80.02 166.966 80.0506 166.739 80.0487 166.51Z" fill="#263238"/>
<path d="M78.3107 170.013C78.5382 169.934 78.784 169.924 79.0171 169.985C79.2502 170.045 79.4602 170.173 79.6206 170.353C79.781 170.533 79.8846 170.756 79.9183 170.994C79.9521 171.233 79.9144 171.476 79.8101 171.693C79.7058 171.91 79.5396 172.091 79.3324 172.214C79.1252 172.337 78.8863 172.395 78.6458 172.382C78.4053 172.369 78.174 172.286 77.9811 172.141C77.7882 171.997 77.6423 171.799 77.5619 171.572C77.4558 171.266 77.4749 170.93 77.6152 170.638C77.7555 170.346 78.0055 170.122 78.3107 170.013Z" fill="#455A64"/>
<path d="M77.5083 167.702C77.6601 167.649 77.8207 167.627 77.9811 167.636C78.1415 167.646 78.2984 167.687 78.443 167.757C78.5876 167.827 78.7169 167.925 78.8237 168.045C78.9305 168.165 79.0125 168.305 79.0652 168.456C79.1179 168.608 79.1402 168.769 79.1308 168.929C79.1214 169.09 79.0805 169.247 79.0105 169.391C78.9404 169.536 78.8426 169.665 78.7226 169.772C78.6025 169.879 78.4626 169.961 78.3109 170.013C78.0044 170.12 77.6681 170.1 77.3762 169.959C77.0842 169.817 76.8604 169.565 76.7539 169.259C76.6475 168.952 76.6672 168.616 76.8087 168.324C76.9502 168.032 77.2018 167.808 77.5083 167.702Z" fill="#455A64"/>
<path d="M43.9005 90.1072C45.2641 89.225 57.2642 82.7156 61.415 76.9324C63.633 73.8466 68.6978 64.7362 66.9929 63.1676C65.4392 61.7391 63.4388 63.894 63.4388 63.894C63.4388 63.894 65.6403 59.7958 63.4625 57.825C61.2848 55.8542 58.0785 59.6778 58.0785 59.6778C58.0785 59.6778 60.0334 55.2999 57.7227 53.4955C55.412 51.691 52.8335 56.0644 52.8335 56.0644C52.8335 56.0644 54.8084 52.15 52.2777 51.4631C49.2258 50.6387 46.399 58.2769 43.4026 61.1919C42.7216 61.8553 28.6802 73.6377 28.6802 73.6377L43.9005 90.1072Z" fill="#D3766A"/>
<path d="M52.6654 56.0622C50.5711 61.667 48.6799 63.7599 43.9867 67.3287C43.889 67.3759 43.9838 67.5527 44.0667 67.4941C48.9812 64.4212 51.7265 62.1379 52.9255 56.159C53.0005 55.8537 52.7585 55.7945 52.6654 56.0622Z" fill="#263238"/>
<path d="M57.907 59.6494C55.2259 65.2876 53.194 67.5691 48.5536 71.669C48.4784 71.7053 48.5848 71.8487 48.6602 71.7936C53.5411 68.1526 56.2312 65.8125 58.1698 59.8284C58.263 59.5607 58.0336 59.3934 57.907 59.6494Z" fill="#263238"/>
<path d="M63.2048 64.0813C60.1923 69.3603 58.1002 71.9586 53.0843 75.3587C53.0584 75.3713 53.0385 75.3936 53.0291 75.4208C53.0196 75.448 53.0213 75.4778 53.0339 75.5037C53.0464 75.5297 53.0687 75.5495 53.0959 75.559C53.1231 75.5685 53.1529 75.5667 53.1789 75.5542C58.6336 72.5818 61.3092 69.3489 63.3377 64.2026C63.5065 63.8612 63.3921 63.7588 63.2048 64.0813Z" fill="#263238"/>
<path d="M24.8198 76.3584C24.8198 76.3584 26.8456 69.1354 28.431 66.1608C30.0163 63.1861 40.0237 54.264 42.0734 56.3153C44.7203 58.9683 39.9578 65.2514 37.2248 68.0205C37.2248 68.0205 43.3519 74.1479 40.8774 79.4079C38.403 84.6678 24.8198 76.3584 24.8198 76.3584Z" fill="#D3766A"/>
<path d="M42.5723 57.2891C43.2385 61.4474 39.4139 64.8558 36.9595 67.7406C36.923 67.7828 36.8968 67.833 36.8831 67.8871C36.8694 67.9412 36.8685 67.9978 36.8804 68.0524C36.8924 68.1069 36.9169 68.1579 36.9521 68.2013C36.9872 68.2447 37.032 68.2793 37.0829 68.3024C39.4821 71.038 42.0591 75.5987 41.1361 79.329C41.1124 79.4333 41.261 79.4913 41.3035 79.3872C42.8407 75.5268 40.665 70.837 37.8487 68.0062C40.4156 65.0856 44.0969 61.496 42.6096 57.2896C42.6099 57.2709 42.5798 57.2855 42.5723 57.2891Z" fill="#263238"/>
<path d="M39.6857 93.9362C38.312 92.7454 33.4742 86.8478 32.3173 85.3573C31.1603 83.8668 26.6015 77.7787 25.3926 76.2576C25.3454 76.1599 25.4251 76.0563 25.4913 76.1356C26.7118 77.6233 31.7307 83.3775 32.9291 84.8387C34.1275 86.2999 38.8489 92.2445 39.765 93.87C39.7694 93.8752 39.7727 93.8813 39.7747 93.8877C39.7767 93.8942 39.7774 93.901 39.7768 93.9078C39.7756 93.9214 39.769 93.934 39.7585 93.9428C39.748 93.9516 39.7344 93.9558 39.7208 93.9546C39.7071 93.9533 39.6945 93.9467 39.6857 93.9362Z" fill="#263238"/>
<path d="M80.9378 12.8513L11.9915 76.7914L49.6287 117.375L118.575 53.4353L80.9378 12.8513Z" fill="#387DE5"/>
<path opacity="0.2" d="M80.934 12.8537L57.7642 34.3412L95.4014 74.9252L118.571 53.4377L80.934 12.8537Z" fill="#71A1EA"/>
<path d="M80.8055 15.9112C81.9295 20.5748 83.0785 25.2262 84.2526 29.8655L87.827 43.7954L91.5096 57.7379C92.7485 62.3706 94.0111 67.0011 95.2974 71.6294C94.1759 66.9709 93.0268 62.3195 91.8503 57.6751L88.2759 43.7453L84.6079 29.8329C83.3593 25.1801 82.0918 20.5396 80.8055 15.9112Z" fill="#263238"/>
<path d="M115.262 53.0674C110.762 51.4346 106.24 49.8277 101.696 48.2466L88.1031 43.5413L74.4824 38.9327C69.9406 37.4189 65.3838 35.9123 60.812 34.4131C65.3148 36.0509 69.8367 37.6578 74.3776 39.2338L87.9709 43.9392L101.592 48.5478C106.153 50.0892 110.71 51.5958 115.262 53.0674Z" fill="#263238"/>
<path d="M30.5061 75.4119L30.8857 75.0598L25.9398 69.7266L25.5601 70.0786L30.5061 75.4119Z" fill="#263238"/>
<path d="M29.6013 76.2422L29.981 75.8901L25.035 70.5569L24.6553 70.909L29.6013 76.2422Z" fill="#263238"/>
<path d="M28.6975 77.0995L29.0771 76.7474L24.1312 71.4142L23.7515 71.7663L28.6975 77.0995Z" fill="#263238"/>
<path d="M27.7888 77.9178L28.1685 77.5658L23.2234 72.2317L22.8437 72.5837L27.7888 77.9178Z" fill="#263238"/>
<path d="M26.8821 78.7655L27.2617 78.4135L22.3157 73.0802L21.9361 73.4323L26.8821 78.7655Z" fill="#263238"/>
<path d="M25.9751 79.5969L26.3547 79.2449L21.4088 73.9116L21.0291 74.2637L25.9751 79.5969Z" fill="#263238"/>
<path d="M25.0711 80.4663L25.4507 80.1143L20.5047 74.781L20.1251 75.1331L25.0711 80.4663Z" fill="#263238"/>
<path d="M24.1617 81.296L24.5413 80.9438L19.5943 75.6115L19.2148 75.9636L24.1617 81.296Z" fill="#263238"/>
<path d="M23.2529 82.1521L23.6326 81.8L18.6866 76.4668L18.307 76.8189L23.2529 82.1521Z" fill="#263238"/>
<path d="M30.0301 66.6861L28.2025 67.6257L31.6095 64.4471L30.533 66.2108L32.3524 68.1695C33.5174 67.3369 34.8872 67.9824 36.5518 69.7747L33.1558 72.9757C31.4948 71.191 30.9494 69.7758 31.864 68.6747L30.0301 66.6861Z" fill="#263238"/>
<path d="M34.8341 66.3383L35.7228 65.5096L33.2995 62.8969L35.5794 60.783L38.0027 63.3957L38.8988 62.5634L39.3836 67.1712L34.8341 66.3383Z" fill="#263238"/>
<path opacity="0.1" d="M11.9958 76.7914L15.082 80.1224L66.5635 43.8298L57.7652 34.3469L11.9958 76.7914Z" fill="black"/>
<path d="M131.675 53.7647L108.498 75.2539L95.3998 74.9287L118.574 53.432L131.675 53.7647Z" fill="#3271CE"/>
<path d="M48.9689 130.467L72.1429 108.97L72.8003 95.8875L49.6227 117.377L48.9689 130.467Z" fill="#3271CE"/>
<path d="M41.4668 66.0892C43.201 65.4359 44.9616 64.7606 46.7497 64.2575C48.5379 63.7543 50.3438 63.3261 52.1783 62.9954C54.5587 62.5155 56.9862 62.3093 59.4135 62.3808C55.0972 62.5668 48.6584 64.2526 46.8629 64.7408C45.0675 65.2289 43.2579 65.6496 41.4772 66.1491C41.4394 66.1859 41.4217 66.111 41.4668 66.0892Z" fill="#263238"/>
<path d="M43.1558 72.5917C45.4028 71.848 47.621 71.0256 49.9077 70.3833C52.1945 69.7411 54.4034 69.3406 56.7217 68.8593C56.8977 68.8206 56.8589 68.9321 56.6829 68.9709C54.382 69.5457 52.3111 70.2506 50.0248 70.8555C47.7385 71.4604 45.4236 71.9678 43.1625 72.644C43.1325 72.6586 43.1146 72.6023 43.1558 72.5917Z" fill="#263238"/>
<path d="M43.5944 78.4277C47.0256 77.2048 50.5741 76.3402 54.1833 75.8477C54.363 75.8165 54.2977 75.9501 54.1142 75.9925C50.5781 76.7752 47.7988 77.3774 43.6414 78.5441C43.5776 78.5657 43.5231 78.4529 43.5944 78.4277Z" fill="#263238"/>
</svg>
