<svg width="25" height="24" viewBox="0 0 25 24" fill="none" xmlns="http://www.w3.org/2000/svg">
<path d="M12.5203 20.5297C10.1854 20.5322 7.86555 20.1574 5.65028 19.4198C4.81028 19.1302 4.16978 18.54 3.89003 17.7698C3.59978 17.0003 3.70028 16.1497 4.16003 15.39L5.30978 13.4797C5.54978 13.08 5.77028 12.2797 5.77028 11.8102V8.91975C5.77028 5.19975 8.80028 2.16975 12.5203 2.16975C16.2403 2.16975 19.2703 5.19975 19.2703 8.91975V11.8102C19.2703 12.27 19.49 13.08 19.73 13.4902L20.87 15.39C21.2998 16.11 21.38 16.98 21.0898 17.7698C20.7995 18.5595 20.1703 19.1602 19.3798 19.4198C17.1683 20.1581 14.8518 20.5329 12.5203 20.5297ZM12.5203 3.66975C9.62978 3.66975 7.27028 6.02025 7.27028 8.91975V11.8102C7.27028 12.54 6.97028 13.62 6.59978 14.25L5.45003 16.1603C5.22953 16.53 5.16953 16.92 5.30003 17.25C5.42003 17.5898 5.72003 17.85 6.12953 17.9902C10.2781 19.3903 14.7715 19.3903 18.92 17.9902C19.28 17.8702 19.5598 17.6003 19.6903 17.2402C19.8208 16.8802 19.79 16.4903 19.5898 16.1603L18.44 14.25C18.0598 13.5997 17.7695 12.5302 17.7695 11.7997V8.91975C17.7695 7.52736 17.2164 6.192 16.2318 5.20744C15.2473 4.22287 13.9119 3.66975 12.5195 3.66975H12.5203ZM14.3803 3.93975C14.3098 3.93975 14.2393 3.93 14.1703 3.90975C13.8942 3.83273 13.6137 3.77262 13.3303 3.72975C12.5132 3.61696 11.6815 3.6783 10.8898 3.90975C10.6093 3.99975 10.3093 3.90975 10.1195 3.69975C9.92978 3.48975 9.86978 3.18975 9.97928 2.91975C10.3895 1.86975 11.3893 1.17975 12.5293 1.17975C13.6693 1.17975 14.6698 1.86 15.0793 2.91975C15.1798 3.18975 15.1295 3.48975 14.9398 3.69975C14.7898 3.86025 14.5805 3.93975 14.3803 3.93975ZM12.5195 22.8097C11.5295 22.8097 10.5695 22.41 9.86978 21.7103C9.16736 21.0067 8.77182 20.0539 8.76953 19.0597H10.2695C10.2695 19.65 10.5095 20.2298 10.9295 20.6498C11.3495 21.0698 11.9293 21.3097 12.5195 21.3097C13.7593 21.3097 14.7695 20.3003 14.7695 19.0597H16.2695C16.2695 21.1297 14.5895 22.8097 12.5195 22.8097Z" fill="white"/>
</svg>
