<svg width="32" height="32" viewBox="0 0 32 32" fill="none" xmlns="http://www.w3.org/2000/svg">
<g clip-path="url(#clip0_206_4410)">
<mask id="mask0_206_4410" style="mask-type:luminance" maskUnits="userSpaceOnUse" x="0" y="0" width="32" height="32">
<path d="M0 0H32V32H0V0Z" fill="white"/>
</mask>
<g mask="url(#mask0_206_4410)">
<path d="M16 19.9902C14.9391 19.9902 13.9217 20.4117 13.1716 21.1618C12.4214 21.912 12 22.9294 12 23.9902V31.9902H20V23.9902C20 22.9294 19.5786 21.912 18.8284 21.1618C18.0783 20.4117 17.0609 19.9902 16 19.9902Z" fill="#171F2A" fill-opacity="0.2"/>
<path d="M22.6667 23.9898V31.9898H28C29.0609 31.9898 30.0783 31.5684 30.8284 30.8182C31.5786 30.0681 32 29.0507 32 27.9898V15.8298C32.0007 15.1367 31.7314 14.4705 31.2493 13.9725L19.9187 1.72313C19.4193 1.18284 18.8136 0.751709 18.1395 0.456846C17.4655 0.161983 16.7377 0.00976562 16.002 0.00976562C15.2663 0.00976562 14.5385 0.161983 13.8645 0.456846C13.1904 0.751709 12.5847 1.18284 12.0853 1.72313L0.774667 13.9685C0.278284 14.4682 -0.00020734 15.1441 1.15822e-07 15.8485V27.9898C1.15822e-07 29.0507 0.421427 30.0681 1.17157 30.8182C1.92172 31.5684 2.93913 31.9898 4 31.9898H9.33333V23.9898C9.35867 20.3538 12.2933 17.3858 15.8373 17.3005C19.5013 17.2111 22.6387 20.2311 22.6667 23.9898Z" fill="#171F2A" fill-opacity="0.2"/>
<path d="M16 19.9902C14.9391 19.9902 13.9217 20.4117 13.1716 21.1618C12.4214 21.912 12 22.9294 12 23.9902V31.9902H20V23.9902C20 22.9294 19.5786 21.912 18.8284 21.1618C18.0783 20.4117 17.0609 19.9902 16 19.9902Z" fill="#BEC4CC"/>
</g>
</g>
<defs>
<clipPath id="clip0_206_4410">
<rect width="32" height="32" fill="white"/>
</clipPath>
</defs>
</svg>
