<svg width="20" height="20" viewBox="0 0 20 20" fill="none" xmlns="http://www.w3.org/2000/svg">
<path d="M20 3.11V14.47C20 15.92 18.96 16.53 17.69 15.83L15.76 14.75C15.6817 14.7061 15.6165 14.6423 15.5708 14.565C15.5251 14.4877 15.5007 14.3998 15.5 14.31V6.99C15.5 4.45 13.43 2.38 10.89 2.38H6.82002C6.45002 2.38 6.19002 1.99 6.36002 1.67C6.88002 0.68 7.92002 0 9.11002 0H16.89C18.6 0 20 1.4 20 3.11Z" fill="#387DE5"/>
<path d="M10.89 3.87891H3.11C2.28599 3.88154 1.49648 4.21005 0.913811 4.79272C0.331143 5.37538 0.00263686 6.16489 0 6.98891V18.3489C0 19.7989 1.04 20.4089 2.31 19.7089L6.24 17.5189C6.66 17.2889 7.34 17.2889 7.76 17.5189L11.69 19.7089C12.96 20.4089 14 19.7989 14 18.3489V6.98891C14 5.27891 12.6 3.87891 10.89 3.87891ZM9 10.7489H7.75V11.9989C7.75 12.4089 7.41 12.7489 7 12.7489C6.59 12.7489 6.25 12.4089 6.25 11.9989V10.7489H5C4.59 10.7489 4.25 10.4089 4.25 9.99891C4.25 9.58891 4.59 9.24891 5 9.24891H6.25V7.99891C6.25 7.58891 6.59 7.24891 7 7.24891C7.41 7.24891 7.75 7.58891 7.75 7.99891V9.24891H9C9.41 9.24891 9.75 9.58891 9.75 9.99891C9.75 10.4089 9.41 10.7489 9 10.7489Z" fill="#387DE5"/>
</svg>
