<svg width="24" height="24" viewBox="0 0 24 24" fill="none" xmlns="http://www.w3.org/2000/svg">
<path d="M22 5.11V16.47C22 17.92 20.96 18.53 19.69 17.83L17.76 16.75C17.6817 16.7061 17.6165 16.6423 17.5708 16.565C17.5251 16.4877 17.5007 16.3998 17.5 16.31V8.99C17.5 6.45 15.43 4.38 12.89 4.38H8.82002C8.45002 4.38 8.19002 3.99 8.36002 3.67C8.88002 2.68 9.92002 2 11.11 2H18.89C20.6 2 22 3.4 22 5.11Z" fill="#387DE5"/>
<path d="M12.89 5.87891H5.11C4.28599 5.88154 3.49648 6.21005 2.91381 6.79272C2.33114 7.37538 2.00264 8.16489 2 8.98891V20.3489C2 21.7989 3.04 22.4089 4.31 21.7089L8.24 19.5189C8.66 19.2889 9.34 19.2889 9.76 19.5189L13.69 21.7089C14.96 22.4089 16 21.7989 16 20.3489V8.98891C16 7.27891 14.6 5.87891 12.89 5.87891ZM11 12.7489H9.75V13.9989C9.75 14.4089 9.41 14.7489 9 14.7489C8.59 14.7489 8.25 14.4089 8.25 13.9989V12.7489H7C6.59 12.7489 6.25 12.4089 6.25 11.9989C6.25 11.5889 6.59 11.2489 7 11.2489H8.25V9.99891C8.25 9.58891 8.59 9.24891 9 9.24891C9.41 9.24891 9.75 9.58891 9.75 9.99891V11.2489H11C11.41 11.2489 11.75 11.5889 11.75 11.9989C11.75 12.4089 11.41 12.7489 11 12.7489Z" fill="#387DE5"/>
</svg>
