<svg width="22" height="22" viewBox="0 0 22 22" fill="none" xmlns="http://www.w3.org/2000/svg">
<path d="M13.6902 21.7498C13.25 21.7498 12.7902 21.62 12.32 21.3703L8.38999 19.1803C8.20024 19.0798 7.78999 19.0798 7.60024 19.1803L3.67999 21.3703C2.83024 21.8398 1.96024 21.8803 1.30024 21.4903C0.629744 21.1003 0.250244 20.3203 0.250244 19.3603V8.00001C0.251039 6.97665 0.657919 5.99543 1.38154 5.27181C2.10517 4.54818 3.08638 4.1413 4.10974 4.14051H11.8902C12.9136 4.1413 13.8948 4.54818 14.6184 5.27181C15.3421 5.99543 15.749 6.97665 15.7497 8.00001V19.3603C15.7497 20.3203 15.3702 21.1003 14.6997 21.4903C14.3917 21.6634 14.0436 21.7528 13.6902 21.7498ZM7.99999 17.6C8.39974 17.6 8.78974 17.69 9.11974 17.87L13.0497 20.06C13.4097 20.2603 13.7397 20.3098 13.94 20.1898C14.1297 20.0803 14.2497 19.76 14.2497 19.3498V7.99026C14.2488 7.36472 13.9999 6.76507 13.5576 6.32267C13.1154 5.88027 12.5158 5.6312 11.8902 5.63001H4.10974C3.4842 5.6312 2.88463 5.88027 2.44238 6.32267C2.00012 6.76507 1.75124 7.36472 1.75024 7.99026V19.3498C1.75024 19.76 1.87024 20.0803 2.05999 20.1898C2.24974 20.2993 2.59024 20.2498 2.95024 20.0503L6.88024 17.8603C7.19974 17.69 7.60024 17.6 7.99999 17.6ZM19.6902 17.87C19.25 17.87 18.7902 17.7395 18.32 17.4898L14.63 15.4295C14.5137 15.3658 14.417 15.2718 14.35 15.1574C14.283 15.043 14.2484 14.9126 14.2497 14.78V8.00001C14.2488 7.37447 13.9999 6.77482 13.5576 6.33242C13.1154 5.89002 12.5158 5.64095 11.8902 5.63976H7.00024C6.58999 5.63976 6.25024 5.30001 6.25024 4.88976V4.11951C6.25104 3.09615 6.65792 2.11493 7.38154 1.39131C8.10517 0.667684 9.08638 0.260804 10.1097 0.26001H17.8902C18.9136 0.260804 19.8948 0.667684 20.6184 1.39131C21.3421 2.11493 21.7489 3.09615 21.7497 4.11951V15.4798C21.7497 16.4398 21.3702 17.2198 20.6997 17.6098C20.3917 17.7831 20.0437 17.8729 19.6902 17.87ZM15.7497 14.33L19.0497 16.1795C19.4097 16.3798 19.7397 16.43 19.94 16.31C20.1297 16.1998 20.2497 15.8795 20.2497 15.47V4.10976C20.2488 3.48422 19.9999 2.88457 19.5576 2.44217C19.1154 1.99977 18.5158 1.7507 17.8902 1.74951H10.1097C9.4842 1.7507 8.88463 1.99977 8.44238 2.44217C8.00012 2.88457 7.75124 3.48422 7.75024 4.10976V4.13001H11.8902C12.9136 4.1308 13.8948 4.53768 14.6184 5.26131C15.3421 5.98493 15.749 6.96615 15.7497 7.98951V14.33ZM10.0002 11.75H5.99974C5.59024 11.75 5.24974 11.4103 5.24974 11C5.24974 10.5898 5.59024 10.25 5.99974 10.25H10.0002C10.4097 10.25 10.7502 10.5898 10.7502 11C10.7502 11.4103 10.4097 11.75 10.0002 11.75ZM7.99999 13.7503C7.58974 13.7503 7.24999 13.4098 7.24999 13.0003V8.99976C7.24999 8.59026 7.58974 8.24976 7.99999 8.24976C8.41024 8.24976 8.74999 8.59026 8.74999 8.99976V13.0003C8.74999 13.4098 8.41024 13.7503 7.99999 13.7503Z" fill="#387DE5"/>
</svg>
