<svg width="24" height="24" viewBox="0 0 24 24" fill="none" xmlns="http://www.w3.org/2000/svg">
<g clip-path="url(#clip0_281_5306)">
<path d="M6.11386 7.84105C5.68787 7.58367 5.54642 7.0242 5.86464 6.64152C6.2518 6.17596 6.70832 5.77033 7.21967 5.43964C7.9841 4.94527 8.851 4.63133 9.75472 4.52159C10.6584 4.41186 11.5753 4.50921 12.4358 4.80626C13.0114 5.00497 13.5518 5.28956 14.0391 5.64894C14.4397 5.94434 14.4362 6.5214 14.0842 6.87325C13.7322 7.2251 13.1652 7.21493 12.7465 6.94596C12.4662 6.76594 12.1646 6.61935 11.8477 6.50995C11.2457 6.30213 10.6042 6.23402 9.97197 6.31079C9.33972 6.38756 8.73323 6.6072 8.19842 6.95306C7.91692 7.13512 7.65916 7.34964 7.43011 7.5915C7.08789 7.95287 6.53984 8.09843 6.11386 7.84105Z" fill="#387DE5"/>
<path fill-rule="evenodd" clip-rule="evenodd" d="M16.8419 16.8418C20.3566 13.3271 20.3566 7.6286 16.8419 4.11388C13.3272 0.599165 7.62868 0.599165 4.11396 4.11388C0.599242 7.6286 0.599242 13.3271 4.11396 16.8418C7.62868 20.3565 13.3272 20.3565 16.8419 16.8418ZM15.2509 15.2508C17.8869 12.6148 17.8869 8.34091 15.2509 5.70487C12.6149 3.06883 8.34099 3.06883 5.70495 5.70487C3.06891 8.34091 3.06891 12.6148 5.70495 15.2508C8.34099 17.8869 12.6149 17.8869 15.2509 15.2508Z" fill="#387DE5"/>
<path d="M14.1902 17.3721L16.8418 14.7205L21.88 19.7586C22.6122 20.4908 22.6122 21.678 21.88 22.4103C21.1477 23.1425 19.9606 23.1425 19.2283 22.4103L14.1902 17.3721Z" fill="#387DE5"/>
</g>
<defs>
<clipPath id="clip0_281_5306">
<rect width="24" height="24" fill="white"/>
</clipPath>
</defs>
</svg>
