<svg width="24" height="24" viewBox="0 0 24 24" fill="none" xmlns="http://www.w3.org/2000/svg">
<g opacity="0.5" clip-path="url(#clip0_376_7154)">
<path d="M6.11386 7.84099C5.68787 7.5836 5.54642 7.02414 5.86464 6.64146C6.2518 6.1759 6.70832 5.77027 7.21967 5.43958C7.9841 4.94521 8.851 4.63127 9.75472 4.52153C10.6584 4.4118 11.5753 4.50915 12.4358 4.8062C13.0114 5.00491 13.5518 5.2895 14.0391 5.64888C14.4397 5.94428 14.4362 6.52134 14.0842 6.87319C13.7322 7.22503 13.1652 7.21487 12.7465 6.9459C12.4662 6.76588 12.1646 6.61928 11.8477 6.50989C11.2457 6.30207 10.6042 6.23396 9.97197 6.31073C9.33972 6.3875 8.73323 6.60714 8.19842 6.953C7.91692 7.13506 7.65916 7.34958 7.43011 7.59144C7.08789 7.95281 6.53984 8.09837 6.11386 7.84099Z" fill="#8F8F8F"/>
<path fill-rule="evenodd" clip-rule="evenodd" d="M16.8419 16.8417C20.3566 13.327 20.3566 7.62854 16.8419 4.11382C13.3272 0.599104 7.62868 0.599104 4.11396 4.11382C0.599242 7.62854 0.599242 13.327 4.11396 16.8417C7.62868 20.3565 13.3272 20.3565 16.8419 16.8417ZM15.2509 15.2508C17.8869 12.6147 17.8869 8.34085 15.2509 5.70481C12.6149 3.06877 8.34099 3.06877 5.70495 5.70481C3.06891 8.34085 3.06891 12.6147 5.70495 15.2508C8.34099 17.8868 12.6149 17.8868 15.2509 15.2508Z" fill="#8F8F8F"/>
<path d="M14.1902 17.3721L16.8418 14.7204L21.88 19.7586C22.6122 20.4908 22.6122 21.678 21.88 22.4102C21.1477 23.1424 19.9606 23.1424 19.2283 22.4102L14.1902 17.3721Z" fill="#8F8F8F"/>
</g>
<defs>
<clipPath id="clip0_376_7154">
<rect width="24" height="24" fill="white"/>
</clipPath>
</defs>
</svg>
