<svg width="28" height="30" viewBox="0 0 28 30" fill="none" xmlns="http://www.w3.org/2000/svg">
<path d="M14.0001 29.1729C13.1071 29.1729 12.2001 28.9729 11.4941 28.5599L4.16006 24.3329C1.17406 22.3199 0.987061 22.0129 0.987061 18.8529V11.1459C0.987061 7.98591 1.16006 7.67991 4.09406 5.69291L11.4801 1.42591C12.8801 0.612912 15.0801 0.612912 16.4801 1.42591L23.8401 5.66591C26.8271 7.67991 27.0141 7.98591 27.0141 11.1459V18.8399C27.0141 21.9999 26.8401 22.3059 23.9071 24.2929L16.5201 28.5599C15.8001 28.9729 14.8941 29.1729 14.0001 29.1729ZM14.0001 2.82591C13.4401 2.82591 12.8941 2.93291 12.5071 3.15991L5.17406 7.39991C3.00006 8.86591 3.00006 8.86591 3.00006 11.1459V18.8399C3.00006 21.1199 3.00006 21.1199 5.22706 22.6259L12.5071 26.8259C13.2941 27.2799 14.7201 27.2799 15.5071 26.8259L22.8401 22.5859C25.0001 21.1199 25.0001 21.1199 25.0001 18.8399V11.1459C25.0001 8.86591 25.0001 8.86591 22.7741 7.35991L15.4941 3.15991C15.1071 2.93291 14.5601 2.82591 14.0001 2.82591ZM14.0001 19.9999C11.2401 19.9999 9.00006 17.7599 9.00006 14.9999C9.00006 12.2399 11.2401 9.99991 14.0001 9.99991C16.7601 9.99991 19.0001 12.2399 19.0001 14.9999C19.0001 17.7599 16.7601 19.9999 14.0001 19.9999ZM14.0001 11.9999C12.3471 11.9999 11.0001 13.3469 11.0001 14.9999C11.0001 16.6529 12.3471 17.9999 14.0001 17.9999C15.6531 17.9999 17.0001 16.6529 17.0001 14.9999C17.0001 13.3469 15.6531 11.9999 14.0001 11.9999Z" fill="#387DE5"/>
</svg>
