<svg width="28" height="30" viewBox="0 0 28 30" fill="none" xmlns="http://www.w3.org/2000/svg">
<path d="M14 29.173C13.107 29.173 12.2 28.973 11.494 28.56L4.16 24.333C1.174 22.32 0.987 22.013 0.987 18.853V11.146C0.987 7.98597 1.16 7.67997 4.094 5.69297L11.48 1.42597C12.88 0.612973 15.08 0.612973 16.48 1.42597L23.84 5.66597C26.827 7.67997 27.014 7.98597 27.014 11.146V18.84C27.014 22 26.84 22.306 23.907 24.293L16.52 28.56C15.8 28.973 14.894 29.173 14 29.173ZM14 2.82597C13.44 2.82597 12.894 2.93297 12.507 3.15997L5.174 7.39997C3 8.86597 3 8.86597 3 11.146V18.84C3 21.12 3 21.12 5.227 22.626L12.507 26.826C13.294 27.28 14.72 27.28 15.507 26.826L22.84 22.586C25 21.12 25 21.12 25 18.84V11.146C25 8.86597 25 8.86597 22.774 7.35997L15.494 3.15997C15.107 2.93297 14.56 2.82597 14 2.82597ZM14 20C11.24 20 9 17.76 9 15C9 12.24 11.24 9.99997 14 9.99997C16.76 9.99997 19 12.24 19 15C19 17.76 16.76 20 14 20ZM14 12C12.347 12 11 13.347 11 15C11 16.653 12.347 18 14 18C15.653 18 17 16.653 17 15C17 13.347 15.653 12 14 12Z" fill="#787878"/>
</svg>
