<svg width="28" height="30" viewBox="0 0 28 30" fill="none" xmlns="http://www.w3.org/2000/svg">
<path d="M14 29.1729C13.107 29.1729 12.2 28.9729 11.494 28.5599L4.16 24.3329C1.174 22.3199 0.987 22.0129 0.987 18.8529V11.1459C0.987 7.98591 1.16 7.67991 4.094 5.69291L11.48 1.42591C12.88 0.612912 15.08 0.612912 16.48 1.42591L23.84 5.66591C26.827 7.67991 27.014 7.98591 27.014 11.1459V18.8399C27.014 21.9999 26.84 22.3059 23.907 24.2929L16.52 28.5599C15.8 28.9729 14.894 29.1729 14 29.1729ZM14 2.82591C13.44 2.82591 12.894 2.93291 12.507 3.15991L5.174 7.39991C3 8.86591 3 8.86591 3 11.1459V18.8399C3 21.1199 3 21.1199 5.227 22.6259L12.507 26.8259C13.294 27.2799 14.72 27.2799 15.507 26.8259L22.84 22.5859C25 21.1199 25 21.1199 25 18.8399V11.1459C25 8.86591 25 8.86591 22.774 7.35991L15.494 3.15991C15.107 2.93291 14.56 2.82591 14 2.82591ZM14 19.9999C11.24 19.9999 9 17.7599 9 14.9999C9 12.2399 11.24 9.99991 14 9.99991C16.76 9.99991 19 12.2399 19 14.9999C19 17.7599 16.76 19.9999 14 19.9999ZM14 11.9999C12.347 11.9999 11 13.3469 11 14.9999C11 16.6529 12.347 17.9999 14 17.9999C15.653 17.9999 17 16.6529 17 14.9999C17 13.3469 15.653 11.9999 14 11.9999Z" fill="#212121"/>
</svg>
