<svg width="30" height="30" viewBox="0 0 30 30" fill="none" xmlns="http://www.w3.org/2000/svg">
<path d="M8.01337 6.45334L5.61337 4.06667L3.73337 5.94667L6.12004 8.33334L8.01337 6.45334ZM0.333374 14H4.33337V16.6667H0.333374V14ZM13.6667 0.733337H16.3334V4.66667H13.6667V0.733337ZM24.3867 4.06L26.264 5.936L23.8774 8.32267L22.0014 6.44534L24.3867 4.06ZM21.9867 24.2133L24.3734 26.6133L26.2534 24.7333L23.8534 22.3467L21.9867 24.2133ZM25.6667 14H29.6667V16.6667H25.6667V14ZM15 7.33334C10.5867 7.33334 7.00004 10.92 7.00004 15.3333C7.00004 19.7467 10.5867 23.3333 15 23.3333C19.4134 23.3333 23 19.7467 23 15.3333C23 10.92 19.4134 7.33334 15 7.33334ZM15 20.6667C12.0534 20.6667 9.66671 18.28 9.66671 15.3333C9.66671 12.3867 12.0534 10 15 10C17.9467 10 20.3334 12.3867 20.3334 15.3333C20.3334 18.28 17.9467 20.6667 15 20.6667ZM13.6667 26H16.3334V29.9333H13.6667V26ZM3.73337 24.72L5.61337 26.6L8.00004 24.2L6.12004 22.32L3.73337 24.72Z" fill="white"/>
</svg>
