<svg width="28" height="29" viewBox="0 0 28 29" fill="none" xmlns="http://www.w3.org/2000/svg">
<path d="M7.45 6.05L5.2 3.8125L3.4375 5.575L5.675 7.8125L7.45 6.05ZM0.25 13.125H4V15.625H0.25V13.125ZM12.75 0.6875H15.25V4.375H12.75V0.6875ZM22.8 3.80625L24.56 5.565L22.3225 7.8025L20.5637 6.0425L22.8 3.80625ZM20.55 22.7L22.7875 24.95L24.55 23.1875L22.3 20.95L20.55 22.7ZM24 13.125H27.75V15.625H24V13.125ZM14 6.875C9.8625 6.875 6.5 10.2375 6.5 14.375C6.5 18.5125 9.8625 21.875 14 21.875C18.1375 21.875 21.5 18.5125 21.5 14.375C21.5 10.2375 18.1375 6.875 14 6.875ZM14 19.375C11.2375 19.375 9 17.1375 9 14.375C9 11.6125 11.2375 9.375 14 9.375C16.7625 9.375 19 11.6125 19 14.375C19 17.1375 16.7625 19.375 14 19.375ZM12.75 24.375H15.25V28.0625H12.75V24.375ZM3.4375 23.175L5.2 24.9375L7.4375 22.6875L5.675 20.925L3.4375 23.175Z" fill="#CBCDCF"/>
</svg>
