<svg width="155" height="56" viewBox="0 0 155 56" fill="none" xmlns="http://www.w3.org/2000/svg">
<rect x="0.440552" y="0.499023" width="154" height="55" rx="12" fill="#387DE5"/>
<rect x="8.44055" y="8.49902" width="138" height="39" rx="12" fill="#387DE5"/>
<path d="M17.3919 26.915C17.3919 25.827 17.6426 24.851 18.1439 23.987C18.6559 23.123 19.3439 22.451 20.2079 21.971C21.0826 21.4804 22.0373 21.235 23.0719 21.235C24.2559 21.235 25.3066 21.5284 26.2239 22.115C27.1519 22.691 27.8239 23.5124 28.2399 24.579H26.0479C25.7599 23.9924 25.3599 23.555 24.8479 23.267C24.3359 22.979 23.7439 22.835 23.0719 22.835C22.3359 22.835 21.6799 23.0004 21.1039 23.331C20.5279 23.6617 20.0746 24.1364 19.7439 24.755C19.4239 25.3737 19.2639 26.0937 19.2639 26.915C19.2639 27.7364 19.4239 28.4564 19.7439 29.075C20.0746 29.6937 20.5279 30.1737 21.1039 30.515C21.6799 30.8457 22.3359 31.011 23.0719 31.011C23.7439 31.011 24.3359 30.867 24.8479 30.579C25.3599 30.291 25.7599 29.8537 26.0479 29.267H28.2399C27.8239 30.3337 27.1519 31.155 26.2239 31.731C25.3066 32.307 24.2559 32.595 23.0719 32.595C22.0266 32.595 21.0719 32.355 20.2079 31.875C19.3439 31.3844 18.6559 30.707 18.1439 29.843C17.6426 28.979 17.3919 28.003 17.3919 26.915ZM34.9349 23.539C35.6069 23.539 36.2043 23.683 36.7269 23.971C37.2603 24.259 37.6763 24.6857 37.9749 25.251C38.2843 25.8164 38.4389 26.499 38.4389 27.299V32.499H36.6309V27.571C36.6309 26.7817 36.4336 26.179 36.0389 25.763C35.6443 25.3364 35.1056 25.123 34.4229 25.123C33.7403 25.123 33.1963 25.3364 32.7909 25.763C32.3963 26.179 32.1989 26.7817 32.1989 27.571V32.499H30.3749V20.659H32.1989V24.707C32.5083 24.3337 32.8976 24.0457 33.3669 23.843C33.8469 23.6404 34.3696 23.539 34.9349 23.539ZM40.1576 28.051C40.1576 27.1657 40.3389 26.3817 40.7016 25.699C41.0749 25.0164 41.5762 24.4884 42.2056 24.115C42.8456 23.731 43.5496 23.539 44.3176 23.539C45.0109 23.539 45.6136 23.6777 46.1256 23.955C46.6482 24.2217 47.0642 24.5577 47.3736 24.963V23.683H49.2136V32.499H47.3736V31.187C47.0642 31.603 46.6429 31.9497 46.1096 32.227C45.5762 32.5044 44.9682 32.643 44.2856 32.643C43.5282 32.643 42.8349 32.451 42.2056 32.067C41.5762 31.6724 41.0749 31.1284 40.7016 30.435C40.3389 29.731 40.1576 28.9364 40.1576 28.051ZM47.3736 28.083C47.3736 27.475 47.2456 26.947 46.9896 26.499C46.7442 26.051 46.4189 25.7097 46.0136 25.475C45.6082 25.2404 45.1709 25.123 44.7016 25.123C44.2322 25.123 43.7949 25.2404 43.3896 25.475C42.9842 25.699 42.6536 26.035 42.3976 26.483C42.1522 26.9204 42.0296 27.443 42.0296 28.051C42.0296 28.659 42.1522 29.1924 42.3976 29.651C42.6536 30.1097 42.9842 30.4617 43.3896 30.707C43.8056 30.9417 44.2429 31.059 44.7016 31.059C45.1709 31.059 45.6082 30.9417 46.0136 30.707C46.4189 30.4724 46.7442 30.131 46.9896 29.683C47.2456 29.2244 47.3736 28.691 47.3736 28.083ZM56.0573 23.539C56.7506 23.539 57.3693 23.683 57.9133 23.971C58.468 24.259 58.9 24.6857 59.2093 25.251C59.5186 25.8164 59.6733 26.499 59.6733 27.299V32.499H57.8653V27.571C57.8653 26.7817 57.668 26.179 57.2733 25.763C56.8786 25.3364 56.34 25.123 55.6573 25.123C54.9746 25.123 54.4306 25.3364 54.0253 25.763C53.6306 26.179 53.4333 26.7817 53.4333 27.571V32.499H51.6093V23.683H53.4333V24.691C53.732 24.3284 54.1106 24.0457 54.5693 23.843C55.0386 23.6404 55.5346 23.539 56.0573 23.539ZM65.5519 23.539C66.2346 23.539 66.8373 23.6777 67.3599 23.955C67.8933 24.2217 68.3093 24.5577 68.6079 24.963V23.683H70.4479V32.643C70.4479 33.4537 70.2773 34.1737 69.9359 34.803C69.5946 35.443 69.0986 35.9444 68.4479 36.307C67.8079 36.6697 67.0399 36.851 66.1439 36.851C64.9493 36.851 63.9573 36.5684 63.1679 36.003C62.3786 35.4484 61.9306 34.691 61.8239 33.731H63.6319C63.7706 34.1897 64.0639 34.5577 64.5119 34.835C64.9706 35.123 65.5146 35.267 66.1439 35.267C66.8799 35.267 67.4719 35.043 67.9199 34.595C68.3786 34.147 68.6079 33.4964 68.6079 32.643V31.171C68.2986 31.587 67.8773 31.939 67.3439 32.227C66.8213 32.5044 66.2239 32.643 65.5519 32.643C64.7839 32.643 64.0799 32.451 63.4399 32.067C62.8106 31.6724 62.3093 31.1284 61.9359 30.435C61.5733 29.731 61.3919 28.9364 61.3919 28.051C61.3919 27.1657 61.5733 26.3817 61.9359 25.699C62.3093 25.0164 62.8106 24.4884 63.4399 24.115C64.0799 23.731 64.7839 23.539 65.5519 23.539ZM68.6079 28.083C68.6079 27.475 68.4799 26.947 68.2239 26.499C67.9786 26.051 67.6533 25.7097 67.2479 25.475C66.8426 25.2404 66.4053 25.123 65.9359 25.123C65.4666 25.123 65.0293 25.2404 64.6239 25.475C64.2186 25.699 63.8879 26.035 63.6319 26.483C63.3866 26.9204 63.2639 27.443 63.2639 28.051C63.2639 28.659 63.3866 29.1924 63.6319 29.651C63.8879 30.1097 64.2186 30.4617 64.6239 30.707C65.0399 30.9417 65.4773 31.059 65.9359 31.059C66.4053 31.059 66.8426 30.9417 67.2479 30.707C67.6533 30.4724 67.9786 30.131 68.2239 29.683C68.4799 29.2244 68.6079 28.691 68.6079 28.083ZM80.9237 27.875C80.9237 28.2057 80.9023 28.5044 80.8597 28.771H74.1237C74.177 29.475 74.4383 30.0404 74.9077 30.467C75.377 30.8937 75.953 31.107 76.6357 31.107C77.617 31.107 78.3103 30.6964 78.7157 29.875H80.6837C80.417 30.6857 79.9317 31.3524 79.2277 31.875C78.5343 32.387 77.6703 32.643 76.6357 32.643C75.793 32.643 75.0357 32.4564 74.3637 32.083C73.7023 31.699 73.1797 31.1657 72.7957 30.483C72.4223 29.7897 72.2357 28.9897 72.2357 28.083C72.2357 27.1764 72.417 26.3817 72.7797 25.699C73.153 25.0057 73.6703 24.4724 74.3317 24.099C75.0037 23.7257 75.7717 23.539 76.6357 23.539C77.4677 23.539 78.209 23.7204 78.8597 24.083C79.5103 24.4457 80.017 24.9577 80.3797 25.619C80.7423 26.2697 80.9237 27.0217 80.9237 27.875ZM79.0197 27.299C79.009 26.627 78.769 26.0884 78.2997 25.683C77.8303 25.2777 77.249 25.075 76.5557 25.075C75.9263 25.075 75.3877 25.2777 74.9397 25.683C74.4917 26.0777 74.225 26.6164 74.1397 27.299H79.0197ZM88.6989 21.379V32.499H86.8749V21.379H88.6989ZM101.766 23.539C102.459 23.539 103.078 23.683 103.622 23.971C104.176 24.259 104.608 24.6857 104.918 25.251C105.238 25.8164 105.398 26.499 105.398 27.299V32.499H103.59V27.571C103.59 26.7817 103.392 26.179 102.998 25.763C102.603 25.3364 102.064 25.123 101.382 25.123C100.699 25.123 100.155 25.3364 99.7497 25.763C99.355 26.179 99.1577 26.7817 99.1577 27.571V32.499H97.3497V27.571C97.3497 26.7817 97.1523 26.179 96.7577 25.763C96.363 25.3364 95.8243 25.123 95.1417 25.123C94.459 25.123 93.915 25.3364 93.5097 25.763C93.115 26.179 92.9177 26.7817 92.9177 27.571V32.499H91.0937V23.683H92.9177V24.691C93.2163 24.3284 93.595 24.0457 94.0537 23.843C94.5123 23.6404 95.003 23.539 95.5257 23.539C96.2297 23.539 96.859 23.6884 97.4137 23.987C97.9683 24.2857 98.395 24.7177 98.6937 25.283C98.9603 24.7497 99.3763 24.3284 99.9417 24.019C100.507 23.699 101.115 23.539 101.766 23.539ZM107.111 28.051C107.111 27.1657 107.292 26.3817 107.655 25.699C108.028 25.0164 108.529 24.4884 109.159 24.115C109.799 23.731 110.503 23.539 111.271 23.539C111.964 23.539 112.567 23.6777 113.079 23.955C113.601 24.2217 114.017 24.5577 114.327 24.963V23.683H116.167V32.499H114.327V31.187C114.017 31.603 113.596 31.9497 113.063 32.227C112.529 32.5044 111.921 32.643 111.239 32.643C110.481 32.643 109.788 32.451 109.159 32.067C108.529 31.6724 108.028 31.1284 107.655 30.435C107.292 29.731 107.111 28.9364 107.111 28.051ZM114.327 28.083C114.327 27.475 114.199 26.947 113.943 26.499C113.697 26.051 113.372 25.7097 112.967 25.475C112.561 25.2404 112.124 25.123 111.655 25.123C111.185 25.123 110.748 25.2404 110.343 25.475C109.937 25.699 109.607 26.035 109.351 26.483C109.105 26.9204 108.983 27.443 108.983 28.051C108.983 28.659 109.105 29.1924 109.351 29.651C109.607 30.1097 109.937 30.4617 110.343 30.707C110.759 30.9417 111.196 31.059 111.655 31.059C112.124 31.059 112.561 30.9417 112.967 30.707C113.372 30.4724 113.697 30.131 113.943 29.683C114.199 29.2244 114.327 28.691 114.327 28.083ZM122.114 23.539C122.797 23.539 123.4 23.6777 123.922 23.955C124.456 24.2217 124.872 24.5577 125.17 24.963V23.683H127.01V32.643C127.01 33.4537 126.84 34.1737 126.498 34.803C126.157 35.443 125.661 35.9444 125.01 36.307C124.37 36.6697 123.602 36.851 122.706 36.851C121.512 36.851 120.52 36.5684 119.73 36.003C118.941 35.4484 118.493 34.691 118.386 33.731H120.194C120.333 34.1897 120.626 34.5577 121.074 34.835C121.533 35.123 122.077 35.267 122.706 35.267C123.442 35.267 124.034 35.043 124.482 34.595C124.941 34.147 125.17 33.4964 125.17 32.643V31.171C124.861 31.587 124.44 31.939 123.906 32.227C123.384 32.5044 122.786 32.643 122.114 32.643C121.346 32.643 120.642 32.451 120.002 32.067C119.373 31.6724 118.872 31.1284 118.498 30.435C118.136 29.731 117.954 28.9364 117.954 28.051C117.954 27.1657 118.136 26.3817 118.498 25.699C118.872 25.0164 119.373 24.4884 120.002 24.115C120.642 23.731 121.346 23.539 122.114 23.539ZM125.17 28.083C125.17 27.475 125.042 26.947 124.786 26.499C124.541 26.051 124.216 25.7097 123.81 25.475C123.405 25.2404 122.968 25.123 122.498 25.123C122.029 25.123 121.592 25.2404 121.186 25.475C120.781 25.699 120.45 26.035 120.194 26.483C119.949 26.9204 119.826 27.443 119.826 28.051C119.826 28.659 119.949 29.1924 120.194 29.651C120.45 30.1097 120.781 30.4617 121.186 30.707C121.602 30.9417 122.04 31.059 122.498 31.059C122.968 31.059 123.405 30.9417 123.81 30.707C124.216 30.4724 124.541 30.131 124.786 29.683C125.042 29.2244 125.17 28.691 125.17 28.083ZM137.486 27.875C137.486 28.2057 137.465 28.5044 137.422 28.771H130.686C130.74 29.475 131.001 30.0404 131.47 30.467C131.94 30.8937 132.516 31.107 133.198 31.107C134.18 31.107 134.873 30.6964 135.278 29.875H137.246C136.98 30.6857 136.494 31.3524 135.79 31.875C135.097 32.387 134.233 32.643 133.198 32.643C132.356 32.643 131.598 32.4564 130.926 32.083C130.265 31.699 129.742 31.1657 129.358 30.483C128.985 29.7897 128.798 28.9897 128.798 28.083C128.798 27.1764 128.98 26.3817 129.342 25.699C129.716 25.0057 130.233 24.4724 130.894 24.099C131.566 23.7257 132.334 23.539 133.198 23.539C134.03 23.539 134.772 23.7204 135.422 24.083C136.073 24.4457 136.58 24.9577 136.942 25.619C137.305 26.2697 137.486 27.0217 137.486 27.875ZM135.582 27.299C135.572 26.627 135.332 26.0884 134.862 25.683C134.393 25.2777 133.812 25.075 133.118 25.075C132.489 25.075 131.95 25.2777 131.502 25.683C131.054 26.0777 130.788 26.6164 130.702 27.299H135.582Z" fill="white"/>
</svg>
