<svg width="24" height="24" viewBox="0 0 24 24" fill="none" xmlns="http://www.w3.org/2000/svg">
<path d="M15 22.7497H8.99999C3.56999 22.7497 1.25024 20.43 1.25024 15V8.99999C1.25024 3.56999 3.56999 1.25024 8.99999 1.25024H15C20.43 1.25024 22.7497 3.56999 22.7497 8.99999V15C22.7497 15.24 22.7497 15.4897 22.7302 15.72C22.7002 16.02 22.4902 16.2802 22.2 16.3702C21.9097 16.4602 21.5902 16.3597 21.3997 16.1197C21.0494 15.6894 20.6071 15.3431 20.1053 15.1061C19.6036 14.8691 19.0551 14.7475 18.5002 14.7502C17.6497 14.7502 16.8202 15.0397 16.1602 15.57C15.7171 15.9184 15.3596 16.3636 15.1152 16.8715C14.8708 17.3794 14.746 17.9366 14.7502 18.5002C14.7502 19.6297 15.2497 20.6902 16.1197 21.3997C16.3597 21.5902 16.4497 21.9097 16.3702 22.2C16.2802 22.4902 16.0297 22.7002 15.72 22.7302C15.4897 22.7497 15.24 22.7497 15 22.7497ZM8.99999 2.75024C4.38974 2.75024 2.75024 4.38974 2.75024 8.99999V15C2.75024 19.6102 4.38974 21.2497 8.99999 21.2497H14.0197C13.5131 20.4224 13.2466 19.4704 13.2502 18.5002C13.2502 16.8802 13.9702 15.39 15.2302 14.4C16.9102 13.0402 19.4602 12.9202 21.2497 14.0197V8.99999C21.2497 4.38974 19.6102 2.75024 15 2.75024H8.99999ZM21.48 7.85999H2.51999C2.10974 7.85999 1.76999 7.51949 1.76999 7.10999C1.76999 6.70049 2.10974 6.35999 2.51999 6.35999H21.48C21.8895 6.35999 22.23 6.69974 22.23 7.10999C22.23 7.52024 21.9 7.85999 21.48 7.85999ZM8.51999 7.71974C8.10974 7.71974 7.76999 7.37999 7.76999 6.96974V2.10974C7.76999 1.69949 8.10974 1.35974 8.51999 1.35974C8.93024 1.35974 9.26999 1.69949 9.26999 2.10974V6.96974C9.26999 7.37999 8.92949 7.71974 8.51999 7.71974ZM15.48 7.26974C15.0705 7.26974 14.73 6.92999 14.73 6.51974V2.10974C14.73 1.69949 15.0705 1.35974 15.48 1.35974C15.8895 1.35974 16.23 1.69949 16.23 2.10974V6.51974C16.23 6.93974 15.9 7.26974 15.48 7.26974ZM18.5002 23.7502C17.28 23.7502 16.1002 23.3302 15.1702 22.56C14.5672 22.0698 14.0817 21.4506 13.7494 20.7481C13.4172 20.0455 13.2466 19.2774 13.2502 18.5002C13.2502 16.8802 13.9702 15.39 15.2302 14.4C16.158 13.6564 17.3113 13.2509 18.5002 13.2502C20.0902 13.2502 21.57 13.95 22.56 15.18C23.3293 16.1155 23.7499 17.2891 23.7502 18.5002C23.7466 19.2451 23.5862 19.9809 23.2794 20.6597C22.9727 21.3385 22.5264 21.9451 21.9697 22.44C21.009 23.2807 19.7769 23.746 18.5002 23.7502ZM18.5002 14.7502C17.6497 14.7502 16.8202 15.0397 16.1602 15.57C15.7171 15.9184 15.3596 16.3636 15.1152 16.8715C14.8708 17.3794 14.746 17.9366 14.7502 18.5002C14.7502 19.6297 15.2497 20.6902 16.1197 21.3997C17.4802 22.53 19.59 22.5202 20.9797 21.3097C21.78 20.5897 22.2502 19.56 22.2502 18.5002C22.2502 17.6302 21.9502 16.7902 21.3997 16.1302C21.0507 15.6977 20.609 15.349 20.1071 15.1102C19.6052 14.8713 19.0561 14.7483 18.5002 14.7502ZM17.379 20.3797C17.1285 20.3797 16.8787 20.25 16.7385 20.0197C16.6876 19.9351 16.654 19.8413 16.6396 19.7436C16.6251 19.646 16.6301 19.5464 16.6543 19.4507C16.6785 19.355 16.7214 19.265 16.7805 19.1859C16.8396 19.1069 16.9138 19.0403 16.9987 18.99L18.039 18.3697V17.1097C18.039 16.7002 18.3787 16.3597 18.789 16.3597C19.1992 16.3597 19.539 16.7002 19.539 17.1097V18.8002C19.539 19.0597 19.3987 19.3102 19.179 19.44L17.769 20.28C17.6385 20.34 17.5087 20.3797 17.379 20.3797Z" fill="#387DE5"/>
</svg>
