<svg width="30" height="30" viewBox="0 0 30 30" fill="none" xmlns="http://www.w3.org/2000/svg">
<path opacity="0.4" d="M29.1667 20.9358L29.1667 9.06409C29.1667 3.90742 26.0926 0.833252 20.9359 0.833252L9.07841 0.833251C3.90758 0.833251 0.833412 3.90742 0.833412 9.06408L0.833411 20.9216C0.833411 26.0783 3.90758 29.1524 9.06424 29.1524L20.9359 29.1524C26.0926 29.1666 29.1667 26.0924 29.1667 20.9358Z" fill="#292D32"/>
<path d="M9.64511 11.6C9.64511 11.3309 9.74428 11.0617 9.95678 10.8492L13.4843 7.3217C14.3201 6.48587 15.6659 6.48587 16.5018 7.3217L20.0293 10.8492C20.4401 11.26 20.4401 11.94 20.0293 12.3509C19.6184 12.7617 18.9384 12.7617 18.5276 12.3509L15.0001 8.82337L11.4584 12.3509C11.0476 12.7617 10.3676 12.7617 9.95678 12.3509C9.75844 12.1384 9.64511 11.8692 9.64511 11.6Z" fill="#292D32"/>
<path d="M9.6451 18.3998C9.6451 18.1307 9.74427 17.8615 9.95677 17.649C10.1567 17.4514 10.4265 17.3406 10.7076 17.3406C10.9887 17.3406 11.2585 17.4514 11.4584 17.649L15.0001 21.1765L18.5418 17.649C18.7417 17.4514 19.0115 17.3406 19.2926 17.3406C19.5737 17.3406 19.8435 17.4514 20.0434 17.649C20.4543 18.0598 20.4543 18.7398 20.0434 19.1507L16.5159 22.6782C15.6801 23.514 14.3343 23.514 13.4984 22.6782L9.97094 19.1507C9.75844 18.9523 9.6451 18.669 9.6451 18.3998Z" fill="#292D32"/>
</svg>
