<svg width="30" height="30" viewBox="0 0 30 30" fill="none" xmlns="http://www.w3.org/2000/svg">
<path opacity="0.4" d="M29.1666 20.9358L29.1666 9.06415C29.1666 3.90748 26.0925 0.833313 20.9358 0.833313L9.07829 0.833312C3.90746 0.833312 0.833292 3.90748 0.833291 9.06415L0.833291 20.9216C0.833291 26.0783 3.90746 29.1525 9.06412 29.1525L20.9358 29.1525C26.0925 29.1666 29.1666 26.0925 29.1666 20.9358Z" fill="#387DE5"/>
<path d="M9.64499 11.6C9.64499 11.3308 9.74415 11.0616 9.95665 10.8491L13.4842 7.32164C14.32 6.4858 15.6658 6.4858 16.5017 7.32164L20.0292 10.8491C20.44 11.26 20.44 11.94 20.0292 12.3508C19.6183 12.7616 18.9383 12.7616 18.5275 12.3508L15 8.8233L11.4583 12.3508C11.0475 12.7616 10.3675 12.7616 9.95665 12.3508C9.75832 12.1383 9.64499 11.8691 9.64499 11.6Z" fill="#387DE5"/>
<path d="M9.64498 18.4C9.64498 18.1308 9.74415 17.8617 9.95665 17.6492C10.1566 17.4516 10.4264 17.3408 10.7075 17.3408C10.9886 17.3408 11.2584 17.4516 11.4583 17.6492L15 21.1767L18.5416 17.6492C18.7416 17.4516 19.0114 17.3408 19.2925 17.3408C19.5736 17.3408 19.8434 17.4516 20.0433 17.6492C20.4541 18.06 20.4541 18.74 20.0433 19.1508L16.5158 22.6783C15.68 23.5142 14.3341 23.5142 13.4983 22.6783L9.97081 19.1508C9.75831 18.9525 9.64498 18.6692 9.64498 18.4Z" fill="#387DE5"/>
</svg>
